<?xml version="1.0" encoding="UTF-8"?>
<svg id="Layer_1" data-name="Layer 1" xmlns="http://www.w3.org/2000/svg" viewBox="0 0 359.96 384">
  <defs>
    <style>
      .cls-1 {
        fill: #d6d1bf;
        stroke-width: 0px;
      }
    </style>
  </defs>
  <g>
    <path class="cls-1" d="M60.52,97.45c5.94,5.65,11.72,11.15,17.82,16.96,3.56-3.69,6.51-6.94,9.66-9.99,2.92-2.83,6.12-2.9,8.99-.1,7.45,7.29,14.82,14.67,22.12,22.11,2.77,2.83,2.76,6.15-.03,9-7.3,7.44-14.67,14.82-22.12,22.11-2.79,2.73-5.97,2.76-8.74.06-7.53-7.36-14.97-14.81-22.34-22.33-2.64-2.7-2.54-5.99.05-8.77,1.03-1.11,2.37-1.93,3.48-2.82-6.07-5.71-11.63-10.92-17.17-16.13-3.86-4-9.29-13.58-9.29-13.58-5.42-9.02-9.08-18.71-10.19-29.27-.08-.8-.28-1.59-.46-2.64-2.92,0-5.77.05-8.61-.01-4.36-.09-6.71-2.29-6.75-6.59-.08-10.22-.08-20.45,0-30.67.03-4.19,2.31-6.52,6.47-6.55,10.32-.09,20.65-.09,30.97,0,4,.04,6.32,2.38,6.35,6.34.09,10.33.08,20.65,0,30.98-.03,4.13-2.4,6.38-6.54,6.48-2.84.07-5.69.01-8.94.01.43,9.13,3.53,17,7.75,24.24,0,0,4.05,8.91,7.53,11.15ZM48.16,30.93h-18.55v18.47h18.55v-18.47ZM92.06,143.71c4.18-4.16,8.49-8.45,12.47-12.41-4.07-4.11-8.33-8.41-12.15-12.27-4.09,4.13-8.34,8.43-12.44,12.57,3.93,3.92,8.17,8.16,12.12,12.11Z"/>
    <path class="cls-1" d="M161.55,166.62c22.01.5,39.78,18.66,39.3,40.17-.49,22.14-18.84,39.92-40.56,39.31-21.87-.61-39.53-19.02-38.91-40.56.62-21.76,18.83-39.39,40.17-38.91ZM160.75,230.09c13.15.17,23.94-10.2,24.13-23.18.19-13.34-10.24-24.2-23.4-24.33-13.17-.13-23.86,10.17-24.09,23.21-.23,13.38,10.11,24.14,23.36,24.31Z"/>
  </g>
  <path class="cls-1" d="M327.95,232.83c-3-1.09-6.16-1.73-8.81-2.45-8.73-2.46-19.18,1.81-19.18,1.81-6.6,3.38-12.09,6.65-19.09,13.65-5.27-4.73-13.99-12.29-22.16-14.28-24.75-6.02-48.24,8.86-54.43,34.64-4.66,19.41,1.81,35.83,14.18,50.53l30.58,26.11c8.45,6.82,17.03,13.46,25.6,20.12,3.58,2.78,7.24,3.14,10.31.72,17.15-13.52,34.58-26.72,51.21-40.85,12.91-10.97,21.07-25.06,21.87-42.56.97-21.16-11.38-40.66-30.08-47.43ZM331.44,310.41c-7.16,6.67-15.1,12.52-22.78,18.62-8.45,6.72-17.05,13.24-25.46,20.01-2.08,1.68-3.43,1.99-5.69.17-13.98-11.24-28.21-22.19-42.15-33.49-10.1-8.19-18.33-17.94-21.01-31.09-3.04-14.9,1.34-27.58,13.31-37.06,12.3-9.74,32.23-6.69,43.58,6.23.55.63,1.05,1.32,1.59,1.96,5.18,6.17,10.56,6.11,15.73-.06,8.99-10.72,20.43-15.91,34.29-13.1,14.46,2.93,24.83,17.56,24.85,37.82-.14,9.6-6.41,20.83-16.25,30Z"/>
  <path class="cls-1" d="M249.57,338.81c-25.34,17.06-55.85,27.03-88.69,27.03C73.06,365.83,1.87,294.65,1.87,206.83S73.06,47.83,160.87,47.83s159,71.19,159,159c0,9.68-.87,19.16-2.53,28.37-.67,3.7-11.99,4.21-11.17-.03,1.79-9.24,2.7-18.72,2.7-28.34,0-39.53-15.39-76.7-43.35-104.65-27.95-27.95-65.12-43.35-104.65-43.35s-76.7,15.39-104.65,43.35c-27.95,27.95-43.35,65.12-43.35,104.65s15.39,76.7,43.35,104.65,65.12,43.35,104.65,43.35c29.19,0,57.08-8.4,80.93-24.04l7.76,8.01Z"/>
</svg>