<?xml version="1.0" encoding="UTF-8"?>
<svg id="Isolation_Mode" data-name="Isolation Mode" xmlns="http://www.w3.org/2000/svg" version="1.1" viewBox="0 0 533.1 328">
  <defs>
    <style>
      .cls-1, .cls-2 {
        fill: #fff;
        stroke-width: 0px;
      }

      .cls-2 {
        display: none;
      }
    </style>
  </defs>
  <g id="GWVflS">
    <g>
      <path class="cls-1" d="M244.6,179.6c-7.5-.2-14.6-1.7-20.9-5.8-7.9-5.2-12.5-12.6-14.5-21.8-2.2-10.2-1.3-20.1,3.8-29.4,5.3-9.6,13.6-14.9,24.4-16.6,6.7-1.1,13.4-.8,19.9,1.3,9.7,3.1,16.8,9.4,20.5,18.9,4.9,12.3,4.5,24.6-1.9,36.3-5.1,9.5-13.5,14.6-24.1,16.3-2.4.4-4.9.5-7.3.7ZM214.1,141.2c0,6.2.7,11.2,2.3,16.1,4.8,14.7,17.9,22.8,33.1,20.3,9.3-1.5,16.1-6.6,20.3-14.8,5.2-10,5.9-20.7,3.4-31.6-3.2-14-13-23.2-25.8-24.2-10.6-.8-19.6,2.5-26.1,11.1-5.4,7.1-7,15.4-7.2,23Z"/>
      <path class="cls-1" d="M347.1,180c-1,.3-1.8.2-2.5-.7-13.3-17.2-26.6-34.3-40-51.4-4.3-5.5-8.5-11-13-16.7,0,.6-.1.9-.1,1.2,0,19.5,0,39.1,0,58.6,0,.7.1,1.4.2,2.1.6,3,2,4.2,5.1,4.3,0,.5,0,1,0,1.6h-12.6v-1.4c0,0,.1-.1.2-.2,3.5-.5,5-2.1,5.2-5.6,0-.5,0-1,0-1.4,0-18.6,0-37.1,0-55.7,0-.9,0-1.8-.3-2.7-.6-2.9-2-4.2-5.1-4.4v-1.7c3.3,0,6.7,0,10,0,.4,0,.8.4,1.1.8,11.4,14.6,22.8,29.3,34.1,44,5,6.5,10.1,13,15.1,19.4.1.1.3.3.5.6,0-.6,0-1,0-1.4,0-18.3,0-36.7,0-55,0-.8,0-1.6-.3-2.4-.6-2.9-2-4.2-5.1-4.3v-1.6h12.2v1.1c-1.4.9-3.1,1.4-3.8,2.5-.9,1.4-1.2,3.2-1.2,4.9,0,21.3,0,42.5,0,63.8v1.7Z"/>
      <path class="cls-1" d="M520.8,107.7v-1.6h12.2c0,.5,0,1,0,1.5-4,.9-5.2,2.5-5.2,6.7,0,21.4,0,42.7,0,64.1v1.7c-1.2.4-1.9,0-2.7-.9-12.8-16.6-25.7-33.1-38.6-49.6-4.7-6-9.4-12-14.2-18.2,0,.6-.1.9-.1,1.3,0,19.5,0,39,0,58.4,0,.7,0,1.4.2,2.1.6,3.1,1.9,4.2,5.1,4.5v1.6h-12.5v-1.1c1.5-.9,3.3-1.3,4.1-2.4.9-1.3,1.3-3.2,1.3-4.8,0-18.7,0-37.4,0-56.1,0-.8,0-1.6-.2-2.4-.6-3-2-4.2-5.1-4.5v-1.6c3.4,0,6.7,0,10.1,0,.4,0,.8.5,1.1.8,13.4,17.3,26.8,34.5,40.2,51.8,2.9,3.8,5.9,7.6,8.8,11.4.2.2.4.4.7.8,0-.7,0-1.1,0-1.6,0-18.2,0-36.4,0-54.6,0-.8,0-1.6-.2-2.4-.6-3.2-1.9-4.3-5.2-4.6Z"/>
      <path class="cls-1" d="M121.9,129.9v12.7c-.7.2-1.3.4-1.7-.5-1.4-3.3-4.2-4.5-7.4-5.2-1.3-.3-2.6-.3-3.9-.3-7.4,0-14.8,0-22.3,0v41.1c.4,0,.9,0,1.3,0,8.4,0,16.8,0,25.2,0,6.6,0,11.9-2.7,15.8-8.2.5-.8.9-2.1,2.5-1.4-.7,3.3-1.4,6.5-2,9.8-.2,1.1-1,.9-1.6.9-12.4,0-24.9,0-37.3,0-4.5,0-8.9,0-13.4,0h-1.5v-1.3c.1,0,.2-.1.3-.2,3.3-.5,4.7-2,5-5.4,0-.4,0-.9,0-1.3,0-18.7,0-37.4,0-56.1,0-.6,0-1.3-.1-1.9-.6-3.4-1.9-4.6-5.3-5.1v-1.6h52.9v11.5c-.7-.5-1.2-.7-1.4-1.1-2.6-5.9-7.5-8.7-13.5-8.9-9-.3-17.9,0-27,0v27.6c.4,0,.9,0,1.3,0,7.2,0,14.5,0,21.7,0,2.2,0,4.4-.6,6.6-1.2,1.7-.5,3.1-1.6,3.9-3.4.2-.5.9-.7,1.3-1.1.1.1.2.3.4.4Z"/>
      <path class="cls-1" d="M457.7,177.5v1.6h-17.2v-1.5c.2,0,.4,0,.6,0,3.6-.1,5-2.1,3.9-5.5-.6-2-1.5-3.8-2.4-5.7-.1-.3-.6-.6-.8-.6-7.2,0-13.6-3-20.1-5.4-4-1.5-8-3.4-12.3-3.7-2.4-.1-4.8.2-7.3.5-.5,0-1,.7-1.2,1.2-1.6,3.7-3.2,7.5-4.6,11.3-.5,1.2-.7,2.6-.7,3.9,0,2.3,1.6,3.8,3.9,4,.5,0,.9,0,1.5,0v1.6h-14.5v-1.6c4.1-.2,6-3,7.4-6.3,2.8-6.7,5.6-13.5,8.4-20.3,6-14.5,12-29.1,18-43.6.2-.5.8-1,1.3-1.2,1-.4,1.1.6,1.4,1.2,9,21,18.1,42,27.1,63,.4,1,.9,2,1.5,3,1.4,2.4,3.2,4.2,6.3,4.3ZM441.8,163.9c-7.4-17.1-14.7-34-22.2-51.2-5.9,14.4-11.7,28.6-17.6,42.9,6.1-1.5,11.5,0,16.9,2,3.7,1.4,7.4,2.8,11.2,4.1,3.7,1.3,7.5,2.2,11.8,2.1Z"/>
      <path class="cls-1" d="M195.2,107.8v-1.7h14.5v1.6c-4.1.2-6,3-7.4,6.4-3.7,9-7.4,18-11.2,27-5,12.2-10,24.4-15.1,36.6-.3.6-.3,1.5-1.4,1.5-1.1,0-1.1-.8-1.4-1.4-9-21-18.1-42-27.1-63-.5-1.2-1.1-2.3-1.8-3.4-1.3-2.1-3.2-3.6-5.9-3.7v-1.6h17.1v1.6c-.4,0-.7,0-1.1,0-2.8.1-4.2,1.9-3.6,4.6.2.8.5,1.7.8,2.4,8.1,18.9,16.2,37.7,24.2,56.5.1.3.3.7.6,1.2,1.9-4.6,3.7-9,5.5-13.4,5.9-14.3,11.8-28.7,17.6-43,.5-1.3.9-2.7.9-4,.1-2.8-1.4-4.3-4.3-4.4-.3,0-.7,0-1.1,0Z"/>
      <path class="cls-1" d="M65.5,179.1H12.1v-1.6c3.3-.1,5-2,5.3-5.2,0-.5,0-1,0-1.4,0-18.9,0-37.7,0-56.6,0-.8,0-1.5-.2-2.3-.6-3-2-4.2-5.1-4.3,0-.5,0-1,0-1.6h16.3v1.4s-.1.1-.2.2c-3.5.5-4.9,2-5.2,5.5,0,.5,0,1.1,0,1.6,0,20.4,0,40.9,0,61.3,0,.5,0,.9,0,1.6h1.6c8.3,0,16.5,0,24.8,0,7.5,0,12.7-3.4,15.9-10.1.1-.2.2-.4.4-.7.7.2,1.4.3,2.2.5-.8,4-1.6,7.8-2.4,11.7Z"/>
      <path class="cls-1" d="M362.5,107.6v-1.5h16.3c0,.5,0,1,0,1.5-4.3,1-5.5,2.4-5.5,6.8,0,18.8,0,37.7,0,56.5,0,.8.1,1.5.3,2.3.6,2.9,2,4.2,5.1,4.4v1.6h-16.2v-1.4s.1-.1.2-.2c3.5-.5,5-2.1,5.2-5.7,0-.3,0-.6,0-.9,0-18.8,0-37.7,0-56.5,0-.7,0-1.3-.2-2-.6-3.3-1.9-4.4-5.2-4.7Z"/>
    </g>
  </g>
  <g id="eg3fLV">
    <g>
      <path class="cls-1" d="M456.1,272.6v-1.4c0-18.1,0-36.3,0-54.4,0-.5,0-1,0-1.4-.3-3.6-1.8-5.3-5.4-5.7v-1.5h12.2c0,.5,0,.9,0,1.4,0,0-.2.2-.2.2-3.3.6-4.7,2-4.9,5.5,0,.6,0,1.2,0,1.9,0,21.1,0,42.1,0,63.2v1.7c-1.1.4-1.8.2-2.5-.7-13.6-17.5-27.2-35-40.8-52.5-3.8-4.9-7.7-9.8-11.5-14.7-.2-.2-.4-.4-.8-.9v1.7c0,19.2,0,38.5,0,57.7,0,.6,0,1.3,0,1.9.5,3.4,1.9,4.7,5.3,5.2,0,.4,0,.9,0,1.5h-12.6v-1.5c4.1-.8,5.4-2.4,5.4-6.6,0-18.9,0-37.7,0-56.6,0-.6,0-1.2-.1-1.7-.6-3.4-1.9-4.6-5.3-5v-1.6c2,0,4.1.2,6.1,0,3.3-.5,5.2.9,7.2,3.5,15.6,20.4,31.4,40.6,47.1,60.8,0,.1.2.2.3.3.1,0,.2,0,.3,0Z"/>
      <path class="cls-1" d="M277.5,258.1c0,3.8,0,7.4,0,11,0,1.9,0,3.9.3,5.7.5,3.2,2.1,4.4,5.4,4.6,0,.5,0,1,0,1.6h-16.9v-1.4c4.2-1,5.4-2.7,5.4-7.2,0-18.6,0-37.2,0-55.8,0-.7,0-1.4-.2-2.1-.7-3.3-1.8-4.4-5.2-4.8v-1.7c.5,0,1.1,0,1.6,0,10.6,0,21.1,0,31.7,0,13,0,22.3,8.4,23.7,21.4.8,7.5-.7,14.3-5.8,20-4.1,4.6-9.4,7-15.4,8-2.5.4-5.1.6-7.7.6-5.6,0-11.1,0-16.9,0ZM277.6,256.6c6.8,0,13.5.3,20.2,0,7.9-.5,14-4.4,17.2-11.8,4-9,3.5-18.1-1.1-26.7-3.1-5.8-8.1-8.7-14.8-8.6-6.6,0-13.2,0-19.9,0-.5,0-1,0-1.6,0v47.2Z"/>
      <path class="cls-1" d="M342.7,238.6v41.2c.6,0,1.1,0,1.6,0,8.2,0,16.4,0,24.6,0,6.9,0,12.3-2.7,16.3-8.3.5-.7.9-1.8,2.4-1.3-.7,3.4-1.4,6.8-2.1,10.1,0,.2-.4.5-.7.5-.4,0-.8,0-1.1,0-16.7,0-33.4,0-50.1,0s-1,0-1.7,0c0-.5,0-.8-.1-1.2.2-.1.2-.2.3-.2,3.5-.5,4.9-2.1,5.2-5.6,0-.4,0-.9,0-1.3,0-18.6,0-37.2,0-55.8,0-.3,0-.6,0-.9-.1-3.8-1.7-5.6-5.4-6.2v-1.5h52.9v11.3c-.6-.4-1.2-.5-1.4-.9-2.9-6.4-8.1-9-14.7-9.1-8.6-.1-17.2,0-25.9,0v27.6c.4,0,.8,0,1.2,0,7.3,0,14.7,0,22,0,2.2,0,4.3-.6,6.4-1.2,1.7-.5,3.1-1.7,3.9-3.4.2-.5.9-.7,1.6-1.2v13.7c-.6-.3-1.4-.4-1.6-.8-1.3-3.2-4.1-4.5-7.1-5.2-1.1-.3-2.2-.4-3.3-.4-7.4,0-14.9,0-22.3,0-.3,0-.6,0-1,0Z"/>
      <path class="cls-1" d="M476.4,279.5v1.5h-14.5c0-.5,0-1,0-1.6,4.2-.2,6.1-3,7.5-6.4,4.6-11.1,9.2-22.3,13.8-33.4,4.2-10.1,8.3-20.3,12.5-30.4.3-.6.3-1.3,1.4-1.3,1.1,0,1.1.8,1.4,1.4,9,21,18.1,42,27.1,63,.5,1.2,1.1,2.3,1.8,3.4,1.3,2.1,3.2,3.6,5.9,3.7v1.6h-17.1v-1.6c.3,0,.6,0,1,0,2.9-.1,4.5-2,3.7-4.8-.6-2.2-1.7-4.4-2.6-6.5,0-.2-.5-.5-.8-.5-7.5,0-14.1-3.3-20.9-5.6-3.8-1.3-7.6-2.6-11.5-3.4-2.3-.4-4.8.1-7.2.4-.5,0-1.1.7-1.3,1.1-1.6,3.8-3.2,7.6-4.7,11.4-.3.7-.6,1.5-.6,2.3-.4,3.7,1,5.2,5.4,5.6ZM495.1,214.7c-5.9,14.5-11.7,28.6-17.6,42.9,5-1.2,9.6-.5,14.1,1.1,5.2,1.9,10.4,3.8,15.7,5.6,3.2,1.1,6.5,1.6,10.1,1.6-7.4-17.1-14.7-34-22.2-51.2Z"/>
      <path class="cls-1" d="M442.1,195.3c-.3,3.4-1.5,6.2-5.1,7-1.5.3-3.3,0-4.7-.5-2.4-.8-4.7-2.1-7.1-3.1-.8-.4-1.7-.7-2.6-.9-2.8-.6-4.9.8-5.5,3.6,0,.4-.5.7-.8.9-.9-5.4,3.6-9,8.7-7.3,2.5.8,4.9,2.1,7.4,3,.9.4,1.9.7,2.9.9,3,.7,4.6-.2,5.7-3.1.1-.3.5-.6.7-.9.1.1.2.2.4.4Z"/>
    </g>
  </g>
  <g id="RB6fwZ">
    <g>
      <path class="cls-1" d="M452.8,312.1c1.9.3,3.5.8,5,1.8,3.8,2.7,2.9,8.1-.4,10.1-1.3.8-2.8,1.3-4.3,1.3-3.6,0-7.2,0-10.8,0,0,0-.1,0-.2,0,0-.3-.1-.4.3-.5,1-.2,1.3-.7,1.4-1.7,0-.2,0-.4,0-.6,0-5.9,0-11.9,0-17.8,0-.4,0-.9-.2-1.3-.2-.6-.6-1-1.2-1.1-.1,0-.3-.2-.4-.3h0c.2-.2.3-.2.5-.2,3.1,0,6.2,0,9.4,0,1.4,0,2.8.3,4,.9,3.2,1.7,3.5,5.8.6,7.9-.9.7-2,1.1-3.2,1.4-.1,0-.3,0-.5.2ZM445.5,312.2v12.6c2.5,0,4.9,0,7.3,0,2.2-.1,3.9-1.2,4.8-3.2,1-2.1,1-4.3-.4-6.3-1-1.5-2.5-2.2-4.2-2.7-2.5-.7-5-.3-7.6-.4ZM445.5,311.9c1.9,0,3.7,0,5.5,0,1.1,0,2.2-.3,3.2-.9,1.9-1.1,2.8-3.1,2.4-5.4-.3-1.8-1.8-3.2-4-3.3-2.3-.2-4.7,0-7-.1,0,0,0,0,0,0v9.7Z"/>
      <path class="cls-1" d="M488.4,302.2v-.5c0,0,.1,0,.2,0,3.3,0,6.6,0,9.9,0,3.8.1,7.1,1.5,9.4,4.7,1.7,2.4,2.2,5,2.1,7.9-.1,2.4-.7,4.6-2,6.6-1.8,2.8-4.5,4.2-7.8,4.3-3.8.1-7.7,0-11.5,0,0,0-.1,0-.2,0v-.4c1.3-.2,1.8-.8,1.8-2.1,0-6.2,0-12.3,0-18.5,0-.2,0-.4,0-.6-.2-1-.6-1.4-1.7-1.5ZM492,324.9c.1,0,.2,0,.3,0,2.5,0,5,0,7.5,0,.5,0,.9,0,1.4-.2,2.6-.5,4.4-2.1,5.5-4.4,1.5-3,1.8-6.1,1.3-9.4-.8-5.3-4.7-8.8-10.1-8.8-1.5,0-2.9,0-4.4,0-.5,0-.9,0-1.4,0v22.7Z"/>
      <path class="cls-1" d="M474,325.4c-3.1,0-5.9-.9-8.2-3-1.8-1.7-2.8-3.8-3.3-6.2-.6-3-.3-5.8,1-8.6,1.6-3.4,4.4-5.4,8.1-6,2.2-.4,4.3-.3,6.4.4,3.2,1,5.6,3.1,6.8,6.4,1.5,4.1,1.3,8.2-1,12-1.8,3-4.7,4.6-8.1,4.9-.6,0-1.2,0-1.7.1ZM483.8,313.7c0-1.9-.2-3.5-.7-5.1-1.6-4.8-5.7-7.4-10.7-6.6-3.2.5-5.4,2.4-6.8,5.3-1.5,3.2-1.6,6.6-.8,10.1,1,4.3,4.1,7.3,8.2,7.6,3.4.3,6.2-.7,8.3-3.4,1.9-2.4,2.4-5.2,2.5-7.8Z"/>
      <path class="cls-1" d="M268.1,302.1v-.4c0,0,.1,0,.2,0,1,0,2,0,2.9,0,.2,0,.4.2.5.3,5.2,6.7,10.4,13.5,15.6,20.2.1.1.2.3.4.5,0-.3,0-.5,0-.6,0-5.9,0-11.8,0-17.6,0-.3,0-.7-.1-1-.2-.9-.6-1.2-1.5-1.3,0-.1,0-.3,0-.5h4v.4s0,0,0,0c-1.1.2-1.6.7-1.7,1.8,0,.2,0,.4,0,.6,0,6.8,0,13.6,0,20.4,0,.2,0,.4,0,.6-.4.2-.6,0-.8-.3-5.6-7.2-11.2-14.5-16.8-21.7,0,0-.1-.1-.2-.2,0,.2,0,.4,0,.5,0,6.2,0,12.5,0,18.7,0,.2,0,.5,0,.7.2,1.1.6,1.4,1.7,1.5v.5h-4c0-.1,0-.3,0-.4,1.4-.3,1.8-.8,1.8-2.2,0-6.1,0-12.2,0-18.3,0-.3,0-.6,0-.8-.2-.9-.7-1.3-1.7-1.4Z"/>
      <path class="cls-1" d="M318.6,302.1v-.5h17.1v3.6c-.2-.1-.4-.2-.4-.3-.9-2.1-2.7-2.9-4.8-2.9-2.6,0-5.2,0-7.7,0-.2,0-.3,0-.5,0v8.9c.1,0,.2,0,.3,0,2.4,0,4.8,0,7.2,0,.7,0,1.4-.2,2.1-.4.5-.1.9-.5,1.1-1,0-.2.3-.2.6-.4v4.4c-.2,0-.4-.1-.5-.3-.6-1.3-1.7-1.7-2.9-1.8-2.6,0-5.2,0-7.9,0v13.4h.6c2.6,0,5.2,0,7.7,0,2.3,0,4.1-.8,5.4-2.7.3-.4.3-.4.8-.4-.2,1.2-.5,2.3-.7,3.5h-17.4c.2-.2.2-.4.4-.4,1.1-.3,1.5-.7,1.5-1.8,0-.1,0-.3,0-.4,0-6,0-12,0-17.9,0-.3,0-.6,0-.9-.2-1-.6-1.4-1.7-1.5Z"/>
      <path class="cls-1" d="M339.2,320.3c.4-.2.6,0,.7.4.9,2,2.4,3.4,4.5,3.9,2.6.5,5.2.9,7.7-.3,1.1-.5,2.1-1.3,2.8-2.2,1.7-2.3,1.4-5.1-.8-6.9-1.5-1.2-3.2-2-4.9-2.6-1.9-.7-3.9-1.4-5.8-2.2-.7-.3-1.4-.7-2.1-1.2-1.6-1.3-1.8-3.3-.6-5,1-1.5,2.5-2.1,4.2-2.4,3.3-.6,6.5,0,9.7,1.2.4.2.5.4.5.8,0,1,0,2,0,2.9-.4.1-.6,0-.7-.3-.2-.5-.4-.9-.6-1.4-.6-1.3-1.6-2.2-3-2.6-2.3-.7-4.7-.7-7,0-1.3.4-2.2,1.3-2.5,2.7-.2,1,0,1.9.9,2.5,1.1.8,2.3,1.3,3.6,1.7,2.3.9,4.6,1.7,6.8,2.6,1.2.5,2.3,1.3,3.1,2.4,2.2,2.7,1.9,6.2-.8,8.6-1.7,1.6-3.8,2.5-6.1,2.5-2.8,0-5.7-.2-8.4-1.2-1.3-.4-1.3-.5-1.3-1.8,0-.7,0-1.3,0-2,0,0,0,0,0-.1Z"/>
      <path class="cls-2" d="M410.5,324.8v.5h-4.7v-.5c1.3,0,1.9-1,2.4-2.1.9-2.1,1.8-4.3,2.6-6.4,1.9-4.7,3.9-9.5,5.8-14.2,0-.2.3-.4.4-.5.4-.1.4.2.5.5,2.9,6.8,5.8,13.5,8.7,20.3.2.4.4.8.6,1.2.4.7,1,1.2,1.9,1.2v.5h-5.5c0-.1,0-.3,0-.5.1,0,.2,0,.3,0,1,0,1.5-.7,1.2-1.7-.2-.7-.5-1.3-.8-2,0,0-.2-.2-.3-.2-2.8,0-5.2-1.3-7.7-2.2-1.2-.4-2.4-.8-3.7-.8,0,0-.1,0-.2,0-.9,0-1.7.2-2,1.3-.3,1-.7,1.9-1.1,2.8,0,.1-.1.3-.1.4-.4,1.4.1,2.2,1.6,2.3ZM416.5,303.7c-1.9,4.7-3.8,9.2-5.7,13.9,1.8-.5,3.5,0,5.1.5,1.5.6,3,1.1,4.6,1.7,1,.3,2,.5,3.1.5-2.4-5.5-4.7-11-7.2-16.6Z"/>
      <path class="cls-1" d="M514.8,324.8v.5h-4.7v-.5c1.3,0,1.9-1,2.4-2.1.9-2.1,1.8-4.3,2.6-6.4,1.9-4.7,3.9-9.5,5.8-14.2,0-.2.3-.4.4-.5.4-.1.4.2.5.5,2.9,6.8,5.8,13.5,8.7,20.3.2.4.4.8.6,1.2.4.7,1,1.2,1.9,1.2v.5h-5.5c0-.1,0-.3,0-.5.1,0,.2,0,.3,0,1,0,1.5-.7,1.2-1.7-.2-.7-.5-1.3-.8-2,0,0-.2-.2-.3-.2-2.8,0-5.2-1.3-7.8-2.2-1.2-.4-2.4-.8-3.7-.8,0,0-.1,0-.2,0-.9,0-1.7.2-2,1.3-.3,1-.7,1.9-1.1,2.8,0,.1-.1.3-.1.4-.4,1.4.1,2.2,1.6,2.3ZM515.2,317.6c1.6-.4,3-.2,4.3.3,1.8.6,3.6,1.3,5.4,2,1,.4,2,.5,3.1.5-2.4-5.5-4.7-11-7.2-16.6-1.9,4.7-3.8,9.2-5.7,13.9Z"/>
      <path class="cls-1" d="M293.3,302.2v-.5h5.2v.4c-1,.2-1.7.9-1.7,2.1,0,2.4,0,4.7,0,7.1,0,1.9,0,3.8,0,5.7,0,3.7,2.3,6.6,5.8,7.4,3.1.7,6,.3,8.5-1.6,1.7-1.3,2.6-3.1,2.6-5.3,0-4.3,0-8.6,0-12.9,0-.8-.2-1.4-.8-1.9-.3-.3-.8-.4-1.2-.6,0,0,0,0-.1.1,0-.1,0-.3,0-.5h4.6v.4c-1.2.2-2,1.1-2,2.6,0,4.1,0,8.2,0,12.3.1,4.1-2.4,6.8-5.6,7.8-3,.9-6,.9-8.8-.5-3.2-1.5-4.8-4.2-4.8-7.7,0-4,0-8.1,0-12.1,0-.5-.2-1-.4-1.5-.2-.6-.7-.9-1.4-.8Z"/>
      <path class="cls-1" d="M372.9,324.8v.5h-5.3v-.4c1.3-.3,1.8-.8,1.8-2.1,0-6.8,0-13.5,0-20.3,0-.1,0-.2,0-.4-1.2,0-2.3,0-3.4,0-.7,0-1.3,0-2,0-1.8.3-3,1.4-3.8,3-.2.3-.3.6-.8.4.2-1.2.3-2.5.5-3.8h20.9c.2,1.3.3,2.5.5,3.8-.5.2-.6,0-.8-.3-.8-1.6-2-2.7-3.8-3-.4,0-.7,0-1.1,0-1.4,0-2.9,0-4.4,0v.6c0,6.5,0,13.1,0,19.6,0,.2,0,.3,0,.5,0,1.3.5,1.8,1.8,2Z"/>
      <g>
        <g id="BTzrkQ.tif">
          <g>
            <path class="cls-1" d="M396.1,317.5c1.4.4,2.7,1,3.9,1.7,1.1.7,2.2,1.5,3.3,2.2,1.7,1.2,3.4,2.5,5.1,3.8,0,0,0,0-.1,0-.7,0-1.5,0-2.2,0-.1,0-.3,0-.4-.1-2-1.2-3.8-2.6-5.6-4.1-1-.9-2.1-1.7-3.2-2.4-.8-.6-1.8-.8-2.8-.8-2,0-3.9,0-5.9,0,0,0-.2,0-.3,0,0,.1,0,.2,0,.3,0,1.5,0,3.1,0,4.6,0,.3,0,.5,0,.7.2.8.7,1.4,1.7,1.3v.5h-5.4v-.4s0,0,.1,0c1,0,1.5-.6,1.6-1.5,0-.3,0-.5,0-.8,0-6,0-11.9,0-17.9,0-.4,0-.9-.2-1.3-.2-.7-.7-1.1-1.4-1,0,0-.1,0-.2,0v-.5c0,0,.1,0,.2,0,3.7,0,7.5,0,11.2,0,3.3,0,5.9,2.1,6.8,5.2.7,2.2.6,4.5-.5,6.6-1.1,2.1-2.9,3.3-5.2,4-.1,0-.2,0-.3,0ZM387.5,317.3c1.2,0,2.3,0,3.4,0,1.1,0,2.3,0,3.4,0,2.4-.3,4.2-1.5,5.3-3.6,1.3-2.7,1.2-5.5,0-8.2-1-2.2-2.7-3.4-5.2-3.4-2.1,0-4.3,0-6.4,0h-.4v15.3Z"/>
            <path class="cls-1" d="M423.8,325.3c-2.9,1.7-6,2.8-9.5,2.7-3-.1-5.8-1.1-8.5-2.7.6,0,1.2,0,1.8,0,.6,0,1.1.1,1.7.4,3.8,2,7.7,1.9,11.6.5.4-.2.9-.3,1.3-.6.5-.3,1-.3,1.6-.2Z"/>
            <path class="cls-1" d="M423,325.2c.8-.5,1.5-.9,2.3-1.3,0,.1.2.2.3.4-.5.3-1,.7-1.5.9-.3.1-.7,0-1.1,0Z"/>
          </g>
        </g>
        <g id="VoZfJi.tif">
          <path class="cls-1" d="M411.8,321.6v.5h-4.7v-.5c1.2,0,1.9-.8,2.3-1.8.8-1.8,1.5-3.5,2.2-5.3,1-2.5,2.1-5.1,3.1-7.6.7-1.7,1.4-3.4,2.1-5,0-.2.2-.3.4-.3.3,0,.3.1.4.3.6,1.5,1.3,3,1.9,4.4.2.4.4.8.5,1.2.2.5.4.9.6,1.4.2.5.4.9.6,1.4.2.5.4.9.6,1.4s.4.9.6,1.4c.2.5.4.9.6,1.4.2.5.4.9.6,1.4.2.5.4.9.6,1.4.2.5.4.9.6,1.4.2.5.4.9.6,1.4.2.5.4.9.6,1.4.2.5.4.9.6,1.4.2.4.4.7.6,1,.4.7,1,1.2,1.9,1.2v.5h-5.6v-.5c.2,0,.3,0,.5,0,.8,0,1.3-.7,1.1-1.4,0-.2,0-.4-.2-.6-.6-1.4-1.2-2.9-1.8-4.3,0-.2-.2-.3-.5-.3-1.3,0-2.6-.5-3.8-.9-1.3-.5-2.5-1-3.8-1.4-1-.3-1.9-.4-2.9,0-.1,0-.2.1-.3.3-.4,1-.9,2-1.2,3.1-.1.4-.2.9-.2,1.3,0,.7.6,1.2,1.3,1.3.2,0,.3,0,.5,0ZM422.5,317.6c-.3-.6-.5-1.2-.8-1.8-.2-.6-.5-1.1-.7-1.7-.3-.6-.5-1.2-.8-1.7-.2-.6-.5-1.1-.7-1.7-.3-.6-.5-1.2-.7-1.8-.3-.6-.5-1.2-.8-1.8-.2-.5-.5-1-.7-1.6-.2-.6-.5-1.2-.8-1.8-1.6,3.9-3.1,7.7-4.7,11.5,1.4-.4,2.6-.1,3.8.3,1.2.4,2.4.9,3.6,1.3,1,.4,2.1.7,3.3.7Z"/>
        </g>
      </g>
    </g>
  </g>
  <path class="cls-1" d="M112.2,58.5c.6-.3,1.1-.9,1.6-1.3-.1-.2-.3-.4-.4-.5-8,4-15.9,8-24,12-1.2-1.4-2.5-2.7-3.6-4.1-1.2-1.6-1.8-3.5-1-5.5,1.2-3.4,7-7.6,10.7-7.8.1.2.3.3.4.5-1.3,1.1-2.7,2.1-4,3.3-.4.4-.5,1-.7,1.6.6.2,1.5.7,1.8.4,1.6-1.3,3.3-2.7,4.6-4.4.5-.7.4-2.4,0-3.1-.5-.7-2-1.1-2.9-.8-3.6,1-7.1,2.5-9.4,5.4-1.8,2.3-4,3.3-6.6,3.8-2.6.4-5.3.5-8,.6-1,0-2-.4-1.8-1.7,0-.9.4-1.7.4-2.6,0-.8-.2-1.5-.3-2.3-.7.2-1.6.3-2.1.7-.8.6-1.4,1.5-2,2.3-.8,1-1.4,2-2.2,2.9-10.5,11.4-21.6,22.3-34.5,31.2-2.6,1.8-5.5,3.2-8.5,4.3-4.3,1.5-7.8-.1-9.2-4.5-.9-3-1.3-6.2-1.3-9.4,0-6.9,1.9-13.5,4.3-20,.3-.8,1.1-1.6,1.9-2,3-1.8,6.3-3.4,9.2-5.3,10.5-6.8,19.4-15.4,27.7-24.6,4.6-5.1,8.9-10.4,11.5-16.7.8-1.9,1-4.3,1-6.4,0-2.7-2.2-4.6-4.9-4.4-2.3.2-4.8.7-6.9,1.6-7.1,3.2-12.5,8.6-17.5,14.4-10.5,12.3-18.2,26.1-23.6,41.2-3.8,3.3-7.8,6.4-12.1,9.2l1.1,1.5c3.4-2.2,6.6-4.6,9.7-7.2,0,0,0,0,0,0-1.7,5.2-3.1,10.6-3.5,16.1-.3,4.9-.5,9.8,2.2,14.3,2.3,3.7,5.4,5,9.7,4.2,3.8-.7,6.8-3,9.9-5,10.7-7,19.5-16,28.3-25.1,1.1-1.1,2.3-2.2,3.5-3.3-.2,1.1-.5,2.2-.6,3.3-.2,2.1,1.3,3.3,3.3,2.3.9-.5,1.9-1.2,2.5-2.1,1.2-1.8,2.1-3.8,3.3-5.8,4.4,1.1,8.9,0,13.4-1.5-1.4,5,1.9,8.1,4.6,11.3-3.2,1.8-6.2,3.5-9.1,5.3-4,2.4-7.4,5.5-9.8,9.5-2.5,4.1-.8,7.9,4,8.4,2,.2,4.1.3,6,0,5.7-.8,10.9-2.9,14.7-7.5,3-3.7,3-8.1.3-11.9-.9-1.2-1.8-2.4-2.8-3.8.8-.4,1.5-.8,2.1-1.1,6.5-3.3,13.1-6.6,19.6-10ZM17.8,48.6c6.4-13.7,14-26.5,25.1-37,3.3-3.1,7-5.7,10.8-8.1,1.7-1.1,4-1.4,6.1-1.6,2.2-.2,3.5,1.1,3.3,3.4-.2,1.9-.6,3.8-1.3,5.5-2.1,4.9-5.1,9.2-8.6,13.1-8.9,10-18.4,19.4-29.6,26.8-2.7,1.7-5.4,3.4-8.1,5-.2-.1-.3-.2-.5-.4.9-2.2,1.8-4.5,2.8-6.7ZM61.9,65.7c1-2.5,1.9-4.6,2.8-6.7.9.1,1.5.2,2,.3-.2,2.8-2,5.4-4.8,6.3ZM87.2,88.2c-3.9,2.2-8.2,3.3-12.8,3.5-1.9-.2-4.2-.2-5.3-2.3-1.1-2,0-4,1.2-5.6,2.4-3.5,5.8-5.9,9.4-8.1,2.5-1.5,5.1-2.9,7.6-4.4.9-.5,1.3-.4,2,.3,6.5,6.2,5.7,12.3-2.1,16.6Z"/>
</svg>