<?xml version="1.0" encoding="utf-8"?>
<!-- Generator: Adobe Illustrator 26.3.1, SVG Export Plug-In . SVG Version: 6.00 Build 0)  -->
<svg version="1.1" id="Layer_1" xmlns="http://www.w3.org/2000/svg" xmlns:xlink="http://www.w3.org/1999/xlink" x="0px" y="0px"
	 viewBox="0 0 360 384" style="enable-background:new 0 0 360 384;" xml:space="preserve">
<style type="text/css">
	.st0{fill:#D6D1BF;}
</style>
<g>
	<path class="st0" d="M302.7,246.3c-1.9-2.4-4.5-2.5-7.4-0.4l-3.4,2.5l-36.9-82.8c0.1,0,0.2-0.1,0.3-0.2c0.3-0.2,0.6-0.3,0.9-0.3
		c9.2-2.4,15.1-10.3,14.1-18.7c-1.2-10-8.3-16.2-18.4-16.2c-3.4,0-6.8,0-10.2,0c-6.7,0-13.7,0-20.5-0.1c-1.4,0-3.3-1-4.1-2.1
		c-5.2-7-10.7-14.6-17.6-24.6c-3-4.3-7-7.4-12.3-9.4c-5.8-2.2-11.9-2.2-19.3-0.2c0,0,0-0.1,0-0.1c0-0.3,0-0.5,0-0.7
		c2.3-11.5-4.3-22.3-15.3-25.3c-11.2-3-22.4,2.9-26.1,13.9c-6.2,18.5-13,38.7-20.6,61.8c-3.9,11.9,1.6,23.2,13.5,27.5l10.4,3.8
		c-0.1,0.5-0.3,1.1-0.4,1.6c-0.3,1.3-0.5,2.5-1,3.6c-5.3,12.8,1,26.6,10.3,32.6c0.8,0.5,1.5,2,1.4,2.8c-0.5,3.4-1,6.9-1.6,10.2
		c-0.8,4.9-1.6,9.9-2.2,14.9c-0.5,4.4-2.6,7.2-4.8,9.7l-0.7,0.8c-9.2,10.1-18.8,20.6-27.7,31.3c-2.4,2.8-4.1,6.9-4.6,10.8
		c-1,8.2,3.9,16,11.7,19.1c2.3,0.9,4.7,1.3,7,1.3c5.5,0,10.8-2.5,14.7-7.2c11.9-14.4,25.4-30.8,38.5-47.2c1.5-1.8,2.5-4.6,3.1-8.2
		c0.9-5.4,1.6-10.8,2.3-16.5c0.3-2.1,0.5-4.1,0.8-6.2c1.2,0.5,2.3,0.9,3.4,1.4c2.9,1.2,5.6,2.3,8.5,3.2c3.1,0.9,4.5,2.6,5.1,6
		c2.4,13.1,5.2,26.8,8.8,43.3c1,4.8,4,9,8.3,11.7c4.2,2.7,9.4,3.7,14,2.7c10.2-2.3,17.1-12.3,15.1-21.9
		c-4.7-22.6-9.6-45.9-14.6-69.1c-0.3-1.6-1.9-3.5-3.5-4.2c-3.9-1.8-8-3.4-11.9-5c-1.7-0.7-3.4-1.4-5.1-2.1
		c-5.1-2.1-10.2-4.2-15.4-6.4l-6.2-2.6l1.8-5.1c1.9-5.3,3.7-10.2,5.5-15.4c0.5-1.4,1.1-3,0.5-4.1c-0.8-1.5-2.7-3.6-4.2-3.4
		c-1.7,0.2-4.2,1.7-4.9,3.5c-1.6,4.2-3.1,8.6-4.5,12.8c-1.3,3.8-2.6,7.7-4.1,11.5c-1.4,3.8-0.5,6,3,7.4c3.9,1.6,7.8,3.2,11.6,4.8
		c8.1,3.4,16.4,6.9,24.7,10.1c2.7,1.1,3.9,2.5,4.5,5.4c1.9,9.4,3.9,18.7,5.9,28.1c2.3,11.1,4.7,22.6,7.1,33.9c0.4,2,0.3,4.2-0.2,5.9
		c-1.3,4.3-5,6.7-9.8,6.4c-4.5-0.3-7.6-3.5-8.7-8.9c-0.9-4.4-1.8-8.9-2.7-13.3c-2.2-10.9-4.5-22.1-6.7-33.2c-0.6-3-2.1-4.7-5.2-5.9
		c-15.8-6.1-31.4-12.3-48.6-19.1c-9.3-3.7-13.3-10.7-11.6-20.3c0.4-2.2,1.1-4.3,1.9-6.4c0.2-0.5,0.4-1,0.6-1.6
		c7.4-21.5,14.7-42.9,22.1-64.3c2.3-6.6,6.8-10.4,13.5-11.5c7.3-1.2,13.1,1.2,17.3,7.1c2.6,3.7,5.3,7.4,7.9,11
		c3.6,5,7.4,10.2,10.9,15.4c1.9,2.8,4.2,4,7.5,4c0.1,0,0.1,0,0.2,0c6.9-0.1,14-0.1,20.8-0.1c4.2,0,8.5,0,12.7,0h0
		c3.4,0,5.8,1.3,7.4,3.8c1.6,2.7,1.7,5.6,0.4,8c-1.5,2.7-4.7,4.4-8.4,4.4c-13.9,0.1-28.9,0.1-43.9-0.1c-1.4,0-3.4-1-4.6-2.3
		c-5.7-6.1-11.3-12.5-16.8-18.6c-1.6-1.8-3.1-3.5-4.7-5.3c-2.4-2.7-4.8-3.1-7.3-1.2c-1.1,0.9-1.8,2-1.9,3.1c-0.1,1.4,0.5,2.9,2,4.5
		l4,4.5c6.5,7.3,13.2,14.9,19.9,22.1c1.4,1.5,4.1,2.7,6.3,2.7c10.9,0.2,22.6,0.2,36.9,0c2.3,0,3.3,0.7,4.2,2.8
		c6,13.7,12.3,27.7,18.3,41.1l4.5,10c3.6,8.2,7.3,16.4,11,24.6l4.3,9.7c-0.1,0.1-0.3,0.2-0.4,0.3c-0.4,0.3-0.7,0.5-1,0.7l-7,3.8
		c-8.5,4.6-17.3,9.4-26.1,14.1c-3.8,2-5,4.3-3.7,7.1c0.5,1.2,1.4,2,2.5,2.4c1.5,0.5,3.3,0.3,5.4-0.8c1.6-0.8,3.2-1.5,4.8-2.3
		c5.1-2.4,10.3-4.9,15.2-7.8c7.5-4.5,15-9.4,22.2-14.1c1.8-1.2,3.6-2.4,5.5-3.6c1.5-1,2.4-2.2,2.7-3.6
		C304,248.7,303.6,247.5,302.7,246.3L302.7,246.3z M158.3,92.1c-6.2,18.5-12.7,37.2-18.9,55.3l-5.9,17.3c-0.1,0.2-0.2,0.3-0.3,0.6
		c0,0.1-0.1,0.1-0.2,0.2c-1.2-0.4-2.3-0.8-3.5-1.2c-2.8-1-5.7-2-8.5-3.2c-5.3-2.3-7.8-8.4-6-14.1c7.9-24.1,14.5-43.8,20.6-62.1
		c1.8-5.2,6.3-8.4,11.3-8.4c1.3,0,2.5,0.2,3.8,0.6c3,1,5.5,3.2,7,6C159,86,159.2,89.2,158.3,92.1L158.3,92.1z M111.1,287.2
		c2.3-2.6,4.5-5.2,6.8-7.8c6.4-7.3,13-14.8,19.8-21.8c5.1-5.2,7.8-11.1,8.7-19c0.5-4.8,1.3-9.6,2.1-14.7c0.3-2.1,0.7-4.3,1-6.6
		l17.8,7.1l-0.8,6c-0.9,7.1-1.7,13.8-2.7,20.6c-0.1,0.9-0.8,1.8-1.5,2.6c-14.2,17.4-26.1,31.9-37.4,45.7c-2.1,2.6-4.7,4.1-7.3,4.3
		c-2.3,0.2-4.6-0.6-6.6-2.3c-2-1.7-3.1-3.8-3.2-6.1C107.8,292.5,108.9,289.7,111.1,287.2L111.1,287.2z"/>
	<path class="st0" d="M203.2,96.3c0.2,0,0.4,0,0.5,0c15-0.3,27-12.7,26.7-27.6c-0.1-7.1-3.2-14.1-8.5-19.2S210,41.8,203,42
		c-15.1,0.4-27,12.7-26.6,27.5C176.7,84.4,188.7,96.3,203.2,96.3L203.2,96.3z M203.4,51.6c9.4,0,17.4,7.9,17.5,17.3
		c0,4.6-1.8,9.1-5.2,12.5c-3.3,3.3-7.8,5.2-12.3,5.2h-0.1c-9.5,0-17.3-7.9-17.4-17.5c0-9.6,7.7-17.5,17.3-17.5
		C203.3,51.6,203.4,51.6,203.4,51.6z"/>
	<path class="st0" d="M194.9,290.3c-1.8,0.3-3.5,0.5-5.3,0.8c-4,0.6-8.1,1.2-12.2,1.7c-7.3,0.9-14.7,1.7-21.9,2.5
		c-3.1,0.3-6.1,0.7-9.2,1c-1.8,0.2-3.3,0.9-4.1,2c-0.7,1-0.9,2.2-0.7,3.6c0.3,1.9,1.5,3.9,5,3.9c0.4,0,0.8,0,1.3-0.1
		c4.1-0.5,8.4-0.9,12.4-1.4c3.9-0.4,7.8-0.8,11.7-1.3c9.6-1.2,17.5-2.3,24.8-3.6c1.3-0.2,2.5-1.3,3.3-2.1c0.3-0.3,0.6-0.5,0.8-0.7
		l0.2-0.1v-0.2c0.1-2.2-0.5-4-1.6-5C198.3,290.4,196.7,290,194.9,290.3L194.9,290.3z"/>
	<path class="st0" d="M97.8,309.4c-1.2-0.8-2.7-0.9-4.3-0.3c-14,5.4-26.1,13.8-35.9,24.8c-1,1.1-1.5,2.3-1.4,3.5
		c0.1,1.2,0.7,2.3,1.7,3.2c1,0.9,2.1,1.4,3.2,1.4c1.2,0,2.5-0.6,3.6-1.8c8.8-9.6,19.4-16.9,32.3-22.4c1.1-0.5,1.9-1.6,2.5-2.5
		c0.2-0.3,0.4-0.5,0.5-0.7l0.1-0.1v-0.2C100,312.1,99.2,310.3,97.8,309.4L97.8,309.4z"/>
</g>
</svg>
