<?xml version="1.0" encoding="UTF-8" standalone="no"?>
<!-- Created with Inkscape (http://www.inkscape.org/) -->

<svg
   width="190.8"
   height="190.8"
   viewBox="0 0 190.8 190.8"
   version="1.1"
   id="svg1"
   inkscape:version="1.4.2 (ebf0e940, 2025-05-08)"
   sodipodi:docname="monogramamarce-prueba.svg"
   xmlns:inkscape="http://www.inkscape.org/namespaces/inkscape"
   xmlns:sodipodi="http://sodipodi.sourceforge.net/DTD/sodipodi-0.dtd"
   xmlns="http://www.w3.org/2000/svg"
   xmlns:svg="http://www.w3.org/2000/svg">
  <sodipodi:namedview
     id="namedview1"
     pagecolor="#000000"
     bordercolor="#000000"
     borderopacity="0.25"
     inkscape:showpageshadow="2"
     inkscape:pageopacity="0.0"
     inkscape:pagecheckerboard="0"
     inkscape:deskcolor="#d1d1d1"
     inkscape:document-units="px"
     showguides="true"
     inkscape:zoom="0.62"
     inkscape:cx="112.90323"
     inkscape:cy="121.77419"
     inkscape:window-width="928"
     inkscape:window-height="382"
     inkscape:window-x="0"
     inkscape:window-y="38"
     inkscape:window-maximized="0"
     inkscape:current-layer="svg1"
     inkscape:lockguides="false" />
  <defs
     id="defs1" />
  <g
     inkscape:label="Capa 1"
     inkscape:groupmode="layer"
     id="layer1"
     transform="translate(-46.276751,-71.275328)" />
  <path
     id="text4"
     style="font-size:19.7556px;font-family:'Snell Roundhand';-inkscape-font-specification:'Snell Roundhand';fill:#ffffff;stroke-width:1.72444"
     inkscape:label="path3"
     d="m 136.66256,16.569309 c -1.60369,0 -3.76744,0.458402 -6.49377,1.377268 -2.64609,0.918925 -5.613,1.380888 -8.90062,1.380888 -3.20739,0 -7.21683,0.184154 -12.02793,0.551896 -4.73094,0.275599 -9.743516,0.873028 -15.035723,1.791997 -5.292196,0.918868 -10.622911,2.203833 -15.995303,3.85785 -5.292236,1.562163 -10.062287,3.628539 -14.312101,6.201509 -4.249807,2.572927 -7.698616,5.698666 -10.344723,9.374352 -2.64611,3.583718 -3.970516,7.855424 -3.970516,12.817531 0,4.594538 1.403147,8.317663 4.209626,11.166275 2.886666,2.848656 6.896106,4.272535 12.027943,4.272535 2.565931,0 5.050954,-0.507222 7.456517,-1.517939 2.405532,-1.102658 4.53309,-2.526594 6.377344,-4.272564 1.844261,-1.837748 3.326162,-3.99801 4.448762,-6.479057 1.202735,-2.481045 1.805894,-5.14482 1.805894,-7.993419 0,-0.827001 -0.08178,-1.743804 -0.242298,-2.75464 -0.08023,-1.010776 -0.280171,-1.976238 -0.600892,-2.895207 l -1.324569,0.136761 c 0.481105,2.021612 0.723616,3.813666 0.723616,5.375845 0,2.572972 -0.521259,5.007466 -1.563656,7.304735 -1.042405,2.29727 -2.445549,4.318534 -4.209614,6.064488 -1.683885,1.654075 -3.647682,2.987714 -5.892833,3.998491 -2.245195,0.918969 -4.572737,1.377342 -6.978299,1.377342 -3.608331,0 -6.253992,-1.194758 -7.937878,-3.583923 -1.68389,-2.481045 -2.526405,-5.328815 -2.526405,-8.545039 0,-4.870226 1.203144,-9.096791 3.608696,-12.680596 2.485742,-3.675642 5.695183,-6.801366 9.624242,-9.374337 4.009259,-2.572927 8.497448,-4.639273 13.468931,-6.201452 5.051647,-1.654031 10.103592,-2.93891 15.155273,-3.857877 5.131826,-0.918897 10.023156,-1.564955 14.673896,-1.932537 4.73091,-0.367684 8.77973,-0.551867 12.14751,-0.551867 v 0.277677 c -4.24982,2.205389 -8.29862,5.237212 -12.14751,9.096645 -3.76871,3.859478 -7.41749,8.225026 -10.94566,13.095252 -3.447946,4.778315 -6.73613,9.970429 -9.863344,15.575759 -3.354662,5.339731 -6.703579,12.422441 -9.139732,16.729588 -2.886665,5.605312 -5.692953,11.248542 -8.419247,16.762032 -2.64612,5.42155 -5.252422,10.429559 -7.818324,15.024099 -5.131854,1.19462 -10.305066,2.20889 -15.517098,3.03587 -5.21203,0.73514 -10.221468,1.51301 -15.032574,2.33999 -4.730918,0.9189 -9.143501,1.92952 -13.232947,3.03223 -4.169625,1.10264 -7.775916,2.53015 -10.822945,4.27611 -3.0470335,1.83785 -5.4139556,4.08829 -7.0978427,6.75313 -1.7640722,2.75672 -2.6459602,6.15681 -2.6459602,10.20004 0,2.57292 0.5606092,4.86844 1.6832193,6.89007 1.0424072,2.02159 2.4455556,3.72348 4.2096281,5.10178 1.764073,1.47028 3.7703655,2.57112 6.0155425,3.3063 2.245184,0.73512 4.530225,1.10329 6.855589,1.10329 5.773329,0 11.185906,-1.37882 16.237569,-4.13554 5.05166,-2.75674 9.742989,-6.34085 14.072979,-10.75162 4.410184,-4.41074 8.458986,-9.37008 12.147505,-14.88358 1.810933,-2.66177 6.502852,-9.40441 10.127635,-15.4712 3.169725,-0.84541 6.377431,-2.03222 9.6274,-3.55502 l -0.528579,-0.9591 c -2.899256,1.30633 -5.783891,2.3746 -8.343743,3.22691 0.765264,-1.31789 1.464519,-2.58683 2.054463,-3.75331 1.882605,-3.17744 3.986579,-7.045329 6.308148,-11.606099 2.806478,-5.60539 5.773392,-11.485055 8.900614,-17.641771 3.207394,-6.248628 6.453068,-12.496442 9.740654,-18.74507 3.3678,-6.340494 6.65595,-12.039725 9.86334,-17.093728 1.55093,-2.488239 3.26361,-4.625583 4.95529,-6.522381 0.40632,-0.361403 0.81511,-0.718929 1.22702,-1.070786 4.4102,-3.859433 9.26214,-6.797485 14.55435,-8.819097 l 0.2423,0.274204 c -5.37237,3.124284 -9.82435,6.937573 -13.35248,11.440247 -3.52817,4.502701 -6.49508,9.42048 -8.90062,14.750198 -2.32538,5.329672 -4.2498,10.935061 -5.77332,16.816093 -1.5235,5.880994 -3.04476,11.805823 -4.568266,17.778751 -1.44334,5.97295 -3.049644,11.85622 -4.813717,17.645329 -1.683878,5.78916 -3.926393,11.21048 -6.732878,16.26447 l 0.840048,1.37728 c 4.089431,-3.39992 7.85951,-7.12302 11.307457,-11.16627 3.447956,-4.04314 6.693646,-8.221019 9.740676,-12.539899 3.04703,-4.41078 5.97456,-8.91532 8.78108,-13.50985 2.88663,-4.594584 5.69291,-9.095477 8.41921,-13.506252 3.52815,-5.605345 7.21633,-11.026667 11.06523,-16.264459 3.92906,-5.329718 7.85976,-10.108513 11.78881,-14.335513 4.00928,-4.318898 7.9762,-7.903022 11.90526,-10.75162 3.92908,-2.8486 7.61724,-4.5956 11.06522,-5.23884 l 0.2423,0.277692 c -5.21206,2.481076 -9.62151,6.20058 -13.22984,11.16273 -3.60832,4.870197 -6.81773,10.385318 -9.62424,16.542035 -2.72626,6.064852 -5.25069,12.496747 -7.57605,19.296689 -2.24517,6.799893 -4.69084,13.322098 -7.33695,19.570728 -2.6461,6.1567 -5.65241,11.76209 -9.02018,16.816069 -3.36779,4.96211 -7.45909,8.77541 -12.27021,11.44027 -1.1226,-0.18369 -2.20446,-0.36769 -3.24688,-0.55191 -1.04239,-0.18368 -2.12428,-0.27417 -3.24688,-0.27417 -0.40091,0 -0.96155,0.0901 -1.68323,0.27417 -0.64149,0.092 -0.96274,0.50864 -0.96274,1.24395 0,0.55121 0.23948,0.91592 0.72047,1.09968 0.48111,0.2756 1.08427,0.41444 1.80595,0.41444 0.48109,0 0.95985,-0.042 1.44094,-0.13661 0.48112,-0.092 1.08426,-0.23095 1.80592,-0.41447 0.72168,-0.092 1.64294,-0.23095 2.76553,-0.41442 1.1226,-0.092 2.52575,-0.1366 4.20962,-0.1366 5.45258,0 10.70453,-0.73276 15.75621,-2.20296 5.05166,-1.47028 9.74301,-3.72438 14.07299,-6.75675 4.32999,-3.0324 8.26067,-6.89087 11.78883,-11.577279 3.52812,-4.68643 6.53442,-10.198 9.02019,-16.538496 l -0.96273,-0.277665 c -4.89133,12.037691 -11.5858,21.08829 -20.08539,27.15306 -8.41944,6.06482 -18.72337,9.09669 -30.91151,9.09669 v -0.27415 c 5.13183,-2.57295 9.45941,-5.74385 12.98754,-9.51142 3.60835,-3.76747 6.65714,-7.764909 9.14287,-11.991839 2.48576,-4.31889 4.57078,-8.68446 6.25466,-13.09525 1.6839,-4.502666 3.16576,-8.72929 4.44874,-12.680557 0.6415,-1.745943 1.484,-4.135399 2.5264,-7.167773 1.12262,-3.032374 2.40451,-6.29345 3.84782,-9.785359 1.52352,-3.583689 3.16918,-7.167844 4.93328,-10.751634 1.76409,-3.675659 3.56718,-6.98183 5.41142,-9.922295 1.92447,-2.940581 3.80951,-5.329935 5.65376,-7.167771 1.92446,-1.83785 3.80947,-2.758243 5.65373,-2.758243 1.20277,0 2.40591,0.184153 3.60871,0.551866 1.28298,0.275599 2.48608,0.414438 3.60868,0.414438 0.64147,0 1.20216,-0.09418 1.68324,-0.277692 0.48098,-0.183675 0.72048,-0.641873 0.72048,-1.377254 0,-0.918969 -0.56072,-1.561424 -1.68322,-1.928976 -1.12261,-0.45907 -2.28638,-0.688627 -3.48912,-0.688627 -3.12726,0 -6.53354,0.548394 -10.22205,1.651341 -3.60837,1.102659 -7.61778,3.308047 -12.02794,6.616094 -4.41019,3.216151 -9.22277,7.810894 -14.4348,13.783835 -5.21204,5.972956 -10.94588,13.877518 -17.20032,23.709821 -2.32538,3.675672 -4.84977,7.718181 -7.57608,12.128961 -2.64608,4.318891 -5.413,8.684465 -8.29969,13.095215 -2.88665,4.31891 -5.85356,8.50033 -8.90062,12.543559 -2.966836,3.95131 -5.933762,7.39646 -8.900615,10.33698 l -0.239217,-0.27768 c 3.287597,-5.05401 6.011996,-10.56556 8.177002,-16.538489 2.16499,-5.97289 4.1319,-12.03667 5.89599,-18.193398 1.84426,-6.24858 3.60803,-12.406215 5.29193,-18.470995 1.76408,-6.064808 3.80659,-11.67021 6.13194,-16.816078 2.40555,-5.145898 5.25436,-9.601729 8.54196,-13.369222 3.28758,-3.859449 7.41515,-6.662137 12.38662,-8.408092 l -0.009,-0.08648 h 0.002 c 0.21968,-0.106674 0.3618,-0.24351 0.3618,-0.443738 0,-0.643297 -1.36571,-1.618962 -1.84682,-1.802723 -0.48107,-0.275599 -0.92363,-0.414438 -1.32452,-0.414438 z M 76.570041,96.885601 c 0.204494,9e-4 0.351602,0.0627 0.443582,0.17304 -0.203467,-0.13342 -0.491862,-0.17234 -0.874626,-0.11175 0.165906,-0.0417 0.308358,-0.0628 0.431044,-0.0628 z M 64.617598,109.3318 c -2.004629,3.67568 -4.532181,7.95105 -7.579211,12.82126 -3.047032,4.96208 -6.492704,9.64707 -10.341586,14.05783 -3.848883,4.41076 -8.058321,8.13389 -12.62887,11.16629 -4.490372,3.03237 -9.221062,4.54652 -14.192541,4.54652 -3.608328,0 -6.617766,-1.14597 -9.023319,-3.44324 -2.4857415,-2.20539 -3.7282485,-5.88337 -3.7282485,-11.02925 0,-3.85944 0.76377,-7.12055 2.287289,-9.78535 1.5235135,-2.57297 3.6479195,-4.7332 6.3742145,-6.47913 2.646106,-1.654 5.773658,-3.0328 9.381986,-4.13555 3.688519,-1.01077 7.655437,-1.92756 11.905247,-2.75455 4.249805,-0.73517 8.701766,-1.47147 13.3525,-2.20657 4.730922,-0.73518 9.46162,-1.65551 14.192539,-2.75826 z" />
</svg>
