<?xml version="1.0" encoding="UTF-8" standalone="no"?>
<!-- Created with Inkscape (http://www.inkscape.org/) -->

<svg
   width="1072.4"
   height="644.70001"
   viewBox="0 0 283.73917 170.57688"
   version="1.1"
   id="svg1"
   sodipodi:docname="pruebamonogramajuanymarcela.svg"
   inkscape:version="1.4.2 (ebf0e940, 2025-05-08)"
   xmlns:inkscape="http://www.inkscape.org/namespaces/inkscape"
   xmlns:sodipodi="http://sodipodi.sourceforge.net/DTD/sodipodi-0.dtd"
   xmlns="http://www.w3.org/2000/svg"
   xmlns:svg="http://www.w3.org/2000/svg">
  <sodipodi:namedview
     id="namedview1"
     pagecolor="#000000"
     bordercolor="#000000"
     borderopacity="0.25"
     inkscape:showpageshadow="2"
     inkscape:pageopacity="0.0"
     inkscape:pagecheckerboard="0"
     inkscape:deskcolor="#d1d1d1"
     inkscape:document-units="mm"
     inkscape:zoom="0.46"
     inkscape:cx="442.3913"
     inkscape:cy="369.56522"
     inkscape:window-width="1088"
     inkscape:window-height="491"
     inkscape:window-x="0"
     inkscape:window-y="129"
     inkscape:window-maximized="0"
     inkscape:current-layer="layer1" />
  <defs
     id="defs1">
    <linearGradient
       id="swatch10"
       inkscape:swatch="solid">
      <stop
         style="stop-color:#ffffff;stop-opacity:1;"
         offset="0"
         id="stop10" />
    </linearGradient>
  </defs>
  <g
     inkscape:label="Capa 1"
     inkscape:groupmode="layer"
     id="layer1">
    <path
       d="m 105.00226,142.03747 q 0.0551,0.1598 0.0688,0.33557 0.0275,0.17578 0.0275,0.31959 0,0.49537 -0.20655,0.92681 -0.19278,0.43145 -0.5095,0.75104 -0.31671,0.30361 -0.72982,0.49537 -0.4131,0.17577 -0.85375,0.17577 -0.88129,0 -1.37702,-0.49536 -0.48195,-0.49537 -0.48195,-1.29435 0,-0.86289 0.45441,-1.48609 0.45442,-0.63918 1.18424,-1.08661 0.72982,-0.44743 1.63865,-0.71908 0.9226,-0.28763 1.83144,-0.44743 0.90883,-0.15979 1.72126,-0.20773 0.82622,-0.0639 1.37703,-0.0639 0.56457,0 1.01899,-0.15979 0.46819,-0.1598 0.74359,-0.1598 0.0689,0 0.15147,0.0479 0.0826,0.032 0.0826,0.14382 0,0.11185 -0.12393,0.19175 -0.12393,0.0639 -0.31672,0.0959 -0.179,0.016 -0.4131,0.032 -0.22032,0 -0.41311,0 -0.4131,0 -0.9226,0.55928 -0.50949,0.54331 -1.0603,1.43816 -0.55081,0.87888 -1.12915,1.98146 -0.56459,1.08661 -1.11539,2.17322 -0.53704,1.07063 -1.01899,2.04538 -0.48196,0.95877 -0.85376,1.56599 l 0.0275,0.032 q 0.81245,-0.28763 1.40456,-0.59124 0.59212,-0.30361 1.07408,-0.7031 0.48195,-0.39949 0.89506,-0.92681 0.41311,-0.52733 0.83998,-1.24641 l 0.11016,0.0799 q -0.42687,0.73506 -0.85375,1.29435 -0.42687,0.5433 -0.95014,0.97475 -0.5095,0.41547 -1.17047,0.75104 -0.66097,0.31959 -1.55603,0.60722 -0.53704,0.94279 -1.17046,1.88558 -0.63343,0.95877 -1.39079,1.72579 -0.74359,0.76702 -1.611116,1.2464 -0.867521,0.47939 -1.858973,0.47939 -0.399336,0 -0.784901,-0.12784 -0.385565,-0.12783 -0.68851,-0.38351 -0.302943,-0.23969 -0.481956,-0.59124 -0.192783,-0.35155 -0.192783,-0.79897 0,-0.7031 0.302945,-1.18249 0.289173,-0.4634 0.81244,-0.783 0.523268,-0.30361 1.239317,-0.49536 0.702279,-0.19175 1.51472,-0.35155 0.826207,-0.14382 1.721277,-0.27165 0.89506,-0.14382 1.77635,-0.35155 0.44065,-0.79898 0.89506,-1.74177 0.46819,-0.95877 0.96392,-1.93352 0.50949,-0.99073 1.04653,-1.94951 0.53703,-0.97475 1.12916,-1.80568 0.60588,-0.84692 1.25308,-1.51806 0.66097,-0.67114 1.39079,-1.05465 v -0.032 q -0.57835,0 -1.39079,0.0639 -0.79867,0.0639 -1.67996,0.22372 -0.86753,0.15979 -1.73504,0.44742 -0.85376,0.27165 -1.54227,0.71908 -0.67473,0.44743 -1.10161,1.08661 -0.41311,0.6232 -0.41311,1.47012 0,0.55928 0.28918,0.99073 0.28917,0.41546 0.90883,0.41546 0.41311,0 0.79867,-0.15979 0.38557,-0.17578 0.67474,-0.46341 0.30294,-0.30361 0.48196,-0.7031 0.17901,-0.39948 0.17901,-0.84691 0,-0.27165 -0.0826,-0.6232 z m -7.463437,12.57589 q 0.85375,0 1.624881,-0.52733 0.7849,-0.52732 1.445866,-1.29434 0.66097,-0.76701 1.18424,-1.62991 0.52327,-0.84691 0.86752,-1.48609 -0.81244,0.19175 -1.62488,0.31959 -0.79867,0.12783 -1.528492,0.25567 -0.729819,0.14381 -1.363247,0.31959 -0.619658,0.19175 -1.074074,0.47939 -0.468187,0.30361 -0.72982,0.75103 -0.261634,0.46341 -0.261634,1.13455 0,0.89485 0.426876,1.27836 0.413106,0.39949 1.032764,0.39949 z m 22.293927,-15.6919 q -1.1567,2.15724 -2.13437,3.83509 -0.96392,1.67785 -1.67996,2.94023 -0.70229,1.24641 -1.10162,2.1093 -0.38557,0.8629 -0.38557,1.39022 0,0.35155 0.1377,0.57526 0.15148,0.20774 0.48196,0.20774 0.49573,0 1.07407,-0.39949 0.57835,-0.41547 1.1567,-1.03867 0.57835,-0.6232 1.12915,-1.35826 0.55081,-0.73506 1.00523,-1.39022 l 0.11016,0.0479 q -0.53704,0.79898 -1.11539,1.58197 -0.56457,0.76702 -1.15669,1.39022 -0.59212,0.60723 -1.19801,0.99073 -0.59211,0.36753 -1.18423,0.36753 -0.57835,0 -0.83998,-0.38351 -0.26164,-0.3835 -0.26164,-1.00671 0,-0.35155 0.1377,-0.75103 0.15148,-0.39949 0.30295,-0.67114 l -0.0276,-0.032 q -0.33049,0.41546 -0.7849,0.91083 -0.45442,0.49536 -0.96391,0.92681 -0.5095,0.43145 -1.04654,0.71908 -0.53703,0.28763 -1.04654,0.28763 -0.48195,0 -0.77112,-0.28763 -0.27541,-0.28763 -0.27541,-0.83094 0,-0.5433 0.33049,-1.31032 0.33048,-0.76701 0.81244,-1.64589 0.49573,-0.87887 1.07407,-1.80568 0.57835,-0.9428 1.06031,-1.82167 0.49573,-0.87888 0.82621,-1.62991 0.33049,-0.75104 0.33049,-1.27837 0,-0.39948 -0.24787,-0.5433 -0.2341,-0.1598 -0.5508,-0.1598 -0.68852,0 -1.40457,0.38351 -0.70227,0.36753 -1.28062,0.97475 -0.56458,0.59125 -0.93638,1.34229 -0.35802,0.73505 -0.35802,1.45413 0,0.51135 0.22032,0.84692 0.23409,0.33557 0.7849,0.33557 0.2754,0 0.5095,-0.11186 0.24786,-0.11186 0.45441,-0.28763 0.20656,-0.17578 0.35803,-0.38351 0.16524,-0.20773 0.2754,-0.41547 l 0.15148,0.032 q -0.12394,0.2397 -0.31672,0.49537 -0.19278,0.23969 -0.42687,0.43145 -0.22033,0.19175 -0.48196,0.31959 -0.26163,0.11185 -0.53703,0.11185 -0.53705,0 -0.85376,-0.33557 -0.30294,-0.35155 -0.30294,-1.02269 0,-0.71908 0.35802,-1.48609 0.3718,-0.783 0.96392,-1.42218 0.60588,-0.63918 1.37701,-1.03867 0.77113,-0.41547 1.59734,-0.41547 0.57835,0 0.93637,0.31959 0.3718,0.31959 0.3718,0.94279 0,0.52733 -0.33048,1.29435 -0.31672,0.75103 -0.79867,1.62991 -0.48196,0.86289 -1.04654,1.78971 -0.56457,0.91083 -1.04653,1.77372 -0.48196,0.84692 -0.81244,1.58198 -0.31672,0.71908 -0.31672,1.21444 0,0.38351 0.16524,0.54331 0.16525,0.15979 0.35803,0.15979 0.49572,0 1.10161,-0.39949 0.60589,-0.39949 1.18424,-0.95877 0.57835,-0.55928 1.0603,-1.15053 0.49573,-0.60722 0.74359,-1.00671 0.66098,-1.03867 1.67996,-2.90827 1.019,-1.88559 2.47864,-4.57015 z m 6.25167,6.15212 q -0.67473,0.99073 -1.39079,1.91755 -0.71605,0.91083 -1.44586,1.62991 -0.71605,0.7031 -1.4321,1.13454 -0.71606,0.41547 -1.37703,0.41547 -0.45441,0 -0.72981,-0.12783 -0.26164,-0.11186 -0.41311,-0.27166 -0.1377,-0.17577 -0.19278,-0.35155 -0.0413,-0.19175 -0.0413,-0.33557 0,-0.27165 0.1377,-0.4634 0.1377,-0.19176 0.38556,-0.19176 0.22033,0 0.34426,0.17578 0.12393,0.17577 0.12393,0.41547 0,0.14381 -0.0689,0.28763 -0.0689,0.14381 -0.19278,0.17577 0.12394,0.22371 0.34426,0.30361 0.22032,0.0639 0.45441,0.0639 0.59212,0 1.23932,-0.39949 0.66097,-0.39948 1.32194,-1.03867 0.67474,-0.65516 1.33571,-1.47011 0.66097,-0.83094 1.26686,-1.69383 0.26162,-0.38351 0.64719,-0.94279 0.39934,-0.55929 0.89507,-1.21445 0.49572,-0.65516 1.07407,-1.3263 0.59212,-0.68712 1.25309,-1.29434 0.66097,-0.60722 1.37701,-1.08661 0.71605,-0.47939 1.45964,-0.71908 l 0.0413,0.0639 q -0.46819,0.49537 -0.97768,1.23042 -0.5095,0.73506 -1.00523,1.59796 -0.48196,0.84691 -0.9226,1.7897 -0.44065,0.9428 -0.7849,1.88559 -0.33048,0.92681 -0.53704,1.78971 -0.19278,0.86289 -0.19278,1.58197 0,0.49537 0.1377,0.84691 0.15147,0.33558 0.59212,0.33558 0.26163,0 0.59212,-0.22372 0.34425,-0.22371 0.71604,-0.59124 0.3718,-0.36753 0.72983,-0.81496 0.37179,-0.44742 0.70228,-0.87887 0.33048,-0.44743 0.59211,-0.83094 0.26164,-0.39949 0.41311,-0.63918 l 0.0964,0.0479 q -0.46818,0.68712 -0.99145,1.45414 -0.52327,0.76702 -1.06031,1.4062 -0.53704,0.6232 -1.08784,1.03867 -0.53704,0.41547 -1.03276,0.41547 -0.33049,0 -0.56458,-0.12784 -0.22033,-0.14382 -0.3718,-0.38351 -0.15147,-0.23969 -0.22032,-0.5433 -0.0689,-0.30362 -0.0689,-0.63918 0,-0.91084 0.22033,-1.74177 0.22032,-0.84692 0.49573,-1.66188 z m 1.95537,-0.19175 q 0.61966,-1.4861 1.45964,-2.90828 0.85375,-1.42218 2.01045,-2.70054 l -0.0276,-0.032 q -0.72982,0.41547 -1.4321,1.02269 -0.68851,0.60722 -1.34948,1.34228 -0.66097,0.73506 -1.29439,1.566 -0.61966,0.83093 -1.21178,1.70981 z m 16.64816,-3.61138 q 0.26163,-0.17577 0.37179,-0.52732 0.12393,-0.36753 0.12393,-0.68712 0,-0.31959 -0.19278,-0.51135 -0.17902,-0.20773 -0.48196,-0.20773 -0.45441,0 -0.93637,0.35155 -0.48196,0.35155 -0.93637,0.86289 -0.45442,0.51135 -0.83999,1.10259 -0.38556,0.59124 -0.66097,1.07063 -0.86751,1.56599 -1.69373,3.48354 -0.81244,1.91754 -1.58356,3.96292 h -0.0964 q 0.16524,-0.94279 0.16524,-1.83764 0,-0.79898 -0.0826,-1.58198 -0.0826,-0.783 -0.17901,-1.58197 -0.0964,-0.783 -0.17901,-1.566 -0.0826,-0.78299 -0.0826,-1.58197 0,-0.28763 0,-0.55928 0.0138,-0.28763 0.0138,-0.59125 h -0.0276 q -0.26163,0.63919 -0.63343,1.58198 -0.35802,0.92681 -0.82621,1.96548 -0.45441,1.03867 -1.01899,2.06136 -0.55081,1.02269 -1.18423,1.85363 -0.61967,0.81495 -1.30817,1.3263 -0.68851,0.51134 -1.4321,0.51134 -0.16524,0 -0.34426,-0.0479 -0.19278,-0.0479 -0.34425,-0.14381 -0.16524,-0.0959 -0.26164,-0.25568 -0.11016,-0.15979 -0.11016,-0.38351 0,-0.25567 0.15148,-0.41546 0.15146,-0.17578 0.37179,-0.17578 0.17901,0 0.30294,0.14382 0.11016,0.12783 0.11016,0.33557 0,0.11185 -0.0276,0.23969 -0.0413,0.11186 -0.15146,0.14382 0.0137,0.0799 0.1377,0.19175 0.12392,0.11186 0.38556,0.11186 0.63343,0 1.25309,-0.47939 0.63343,-0.49536 1.22554,-1.29434 0.60589,-0.79898 1.1567,-1.83765 0.56458,-1.05465 1.0603,-2.15723 0.5095,-1.10259 0.95015,-2.1892 0.44064,-1.10259 0.7849,-2.01342 0.0276,-0.1598 0.0689,-0.36753 0.0551,-0.22371 0.15148,-0.41547 0.0964,-0.20773 0.23408,-0.35155 0.15148,-0.14381 0.34426,-0.14381 -0.0413,0.15979 -0.11016,0.33557 -0.0689,0.15979 -0.12393,0.39949 -0.0551,0.23969 -0.0964,0.59124 -0.0413,0.33557 -0.0413,0.87887 0,0.65516 0.0826,1.31032 0.0826,0.63919 0.17902,1.32631 0.0964,0.68712 0.17901,1.42217 0.0826,0.73506 0.0826,1.566 0,0.4634 -0.0551,0.95877 -0.055,0.49536 -0.19278,1.07063 l 0.0276,0.032 q 0.24786,-0.63918 0.56458,-1.42218 0.31671,-0.79898 0.66097,-1.59795 0.35802,-0.79898 0.72981,-1.566 0.3718,-0.76701 0.70228,-1.35826 0.48196,-0.84691 0.96391,-1.53403 0.48196,-0.7031 0.96392,-1.21445 0.48196,-0.51134 0.95014,-0.78299 0.46819,-0.28763 0.90883,-0.28763 0.46819,0 0.74359,0.30361 0.28918,0.28763 0.28918,0.73506 0,0.28763 -0.11016,0.52732 -0.0964,0.23969 -0.26164,0.44743 -0.16524,0.19175 -0.37179,0.33557 -0.20656,0.14381 -0.41311,0.22371 z"
       id="text1"
       style="font-size:25.4px;font-family:'Snell Roundhand';-inkscape-font-specification:'Snell Roundhand';fill:#ffffff;stroke-width:0.154518"
       aria-label="JUAN"
       inkscape:label="path1" />
    <path
       d="m 95.513467,158.92229 c -0.284587,0.73506 -0.628841,1.37424 -1.032767,1.91755 -0.403925,0.54329 -0.853751,0.99072 -1.349478,1.34227 -0.495727,0.35155 -1.032764,0.61255 -1.611112,0.783 -0.578347,0.17044 -1.179646,0.25567 -1.803894,0.25567 -0.192783,0 -0.353434,0.005 -0.481956,0.016 -0.128522,0.0214 -0.234094,0.0374 -0.316715,0.048 -0.08262,0.0214 -0.151472,0.0373 -0.206552,0.048 -0.05508,0.0106 -0.110162,0.016 -0.165243,0.016 -0.08262,0 -0.151472,-0.016 -0.206553,-0.0479 -0.05508,-0.0214 -0.08262,-0.0639 -0.08262,-0.12784 0,-0.0852 0.03672,-0.13317 0.110161,-0.14382 0.08262,-0.0213 0.146883,-0.032 0.192783,-0.032 0.128523,0 0.252454,0.0106 0.371795,0.032 0.119342,0.0214 0.243274,0.0426 0.371796,0.0639 0.550807,-0.30893 1.018993,-0.75103 1.404558,-1.32629 0.385566,-0.58593 0.72982,-1.23575 1.032764,-1.94951 0.302944,-0.72441 0.582939,-1.48077 0.839981,-2.26909 0.266225,-0.78832 0.555398,-1.53403 0.867523,-2.23714 0.321304,-0.71375 0.688509,-1.35293 1.101614,-1.91754 0.413108,-0.57526 0.918014,-1.00671 1.514724,-1.29434 l -0.02754,-0.032 c -0.394744,0.0746 -0.817033,0.27698 -1.26686,0.60722 -0.449826,0.33024 -0.904242,0.74571 -1.363249,1.2464 -0.449825,0.49004 -0.899652,1.044 -1.349478,1.66188 -0.440646,0.60722 -0.862931,1.23574 -1.266857,1.88558 -0.312124,0.51135 -0.633428,1.03334 -0.963913,1.566 -0.321304,0.53264 -0.656379,1.05465 -1.005223,1.56599 -0.348846,0.50069 -0.72064,0.9854 -1.115385,1.45414 -0.394746,0.46872 -0.826212,0.90017 -1.294398,1.29433 l -0.09639,-0.15979 c 0.321304,-0.58592 0.578347,-1.21444 0.77113,-1.88558 0.201962,-0.67114 0.385565,-1.35294 0.550808,-2.04538 0.174422,-0.69245 0.348844,-1.37957 0.523267,-2.06136 0.174422,-0.6818 0.394744,-1.33163 0.660969,-1.94951 0.275403,-0.61787 0.615068,-1.18781 1.018993,-1.7098 0.403926,-0.522 0.913423,-0.9641 1.528491,-1.32631 l -0.02754,-0.032 c -0.605888,0.23437 -1.161286,0.57527 -1.666193,1.02269 -0.504907,0.43677 -0.973093,0.93747 -1.404559,1.50208 -0.431466,0.55395 -0.830801,1.15585 -1.198006,1.80569 -0.367205,0.63918 -0.72064,1.27836 -1.060304,1.91754 -0.339665,0.63918 -0.66556,1.25705 -0.977684,1.85363 -0.312124,0.59656 -0.633428,1.12388 -0.963912,1.58197 -0.330485,0.44743 -0.68392,0.80963 -1.060304,1.08661 -0.376386,0.26632 -0.798671,0.39948 -1.266857,0.39948 -0.119342,0 -0.238684,-0.0106 -0.358026,-0.032 -0.110161,-0.0214 -0.215732,-0.0639 -0.316714,-0.12784 -0.0918,-0.0639 -0.169833,-0.14914 -0.234093,-0.25567 -0.05508,-0.10653 -0.08262,-0.24502 -0.08262,-0.41546 0,-0.1598 0.0459,-0.29297 0.137702,-0.39949 0.0918,-0.10654 0.206553,-0.1598 0.344255,-0.1598 0.119341,0 0.215732,0.0533 0.289173,0.1598 0.07344,0.10652 0.110162,0.22903 0.110162,0.36753 0,0.0852 -0.01836,0.17577 -0.05508,0.27164 -0.02754,0.0959 -0.07803,0.15447 -0.151472,0.17578 0.0092,0.0639 0.06426,0.11718 0.165242,0.1598 0.100982,0.0426 0.197373,0.0639 0.289174,0.0639 0.403926,0 0.78031,-0.14381 1.129156,-0.43145 0.348844,-0.29829 0.688509,-0.68712 1.018993,-1.1665 0.339665,-0.49004 0.67474,-1.044 1.005223,-1.66187 0.330485,-0.62853 0.674739,-1.27836 1.032764,-1.94951 0.422286,-0.77767 0.844572,-1.5074 1.266857,-2.18919 0.422286,-0.6818 0.876702,-1.28902 1.363249,-1.82167 0.486546,-0.5433 1.018993,-1.00138 1.597341,-1.37424 0.587528,-0.37286 1.253087,-0.64451 1.996677,-0.81496 l 0.01377,0.14382 c -0.569168,0.20241 -1.041944,0.52732 -1.418329,0.97475 -0.376385,0.43677 -0.70228,0.95345 -0.977683,1.55002 -0.266224,0.59656 -0.500317,1.2464 -0.70228,1.9495 -0.192782,0.7031 -0.394745,1.41685 -0.605888,2.14126 -0.201963,0.71375 -0.426876,1.41685 -0.674739,2.1093 -0.247864,0.69243 -0.559987,1.33162 -0.936373,1.91754 l 0.02754,0.032 c 0.339665,-0.34089 0.67933,-0.74038 1.018995,-1.19846 0.348844,-0.46874 0.688509,-0.95345 1.018993,-1.45414 0.330485,-0.51134 0.647199,-1.01736 0.950143,-1.51805 0.312124,-0.51135 0.601298,-0.98008 0.867522,-1.4062 0.71605,-1.13988 1.372428,-2.05604 1.969137,-2.74848 0.596708,-0.69245 1.147515,-1.2251 1.652422,-1.59796 0.504909,-0.3835 0.963916,-0.63918 1.377021,-0.76701 0.422284,-0.12784 0.812441,-0.19176 1.170466,-0.19176 0.137702,0 0.270812,0.0266 0.399335,0.0799 0.128524,0.0426 0.192783,0.11719 0.192783,0.22372 0,0.0852 -0.02754,0.13849 -0.08262,0.15979 -0.05508,0.0213 -0.11934,0.032 -0.192783,0.032 -0.128523,0 -0.266225,-0.016 -0.413106,-0.0479 -0.137701,-0.0426 -0.275403,-0.0639 -0.413105,-0.0639 -0.211145,0 -0.426876,0.10653 -0.647198,0.31959 -0.211146,0.21306 -0.426876,0.49004 -0.647199,0.83094 -0.211145,0.34089 -0.417699,0.7244 -0.619661,1.15053 -0.201963,0.41546 -0.390156,0.83093 -0.564578,1.24639 -0.165242,0.40482 -0.312125,0.783 -0.440646,1.13455 -0.119341,0.35155 -0.215733,0.62853 -0.289174,0.83094 -0.146882,0.45809 -0.316714,0.94811 -0.509497,1.47011 -0.192783,0.51135 -0.431466,1.01737 -0.716049,1.51806 -0.284584,0.49004 -0.633429,0.95344 -1.046535,1.39022 -0.403926,0.43676 -0.899652,0.80429 -1.48718,1.10258 v 0.032 c 1.395379,0 2.575025,-0.35154 3.538938,-1.05465 0.973093,-0.7031 1.739634,-1.75242 2.299624,-3.14796 z m 6.527063,-0.67114 c -0.44982,0.66048 -0.91342,1.29966 -1.39078,1.91754 -0.47737,0.60723 -0.959326,1.15053 -1.445874,1.62992 -0.477365,0.46872 -0.954735,0.84691 -1.432098,1.13454 -0.477365,0.27697 -0.936373,0.41547 -1.377019,0.41547 -0.302944,0 -0.546215,-0.0426 -0.72982,-0.12784 -0.17442,-0.0746 -0.312122,-0.16512 -0.413106,-0.27165 -0.0918,-0.11719 -0.156064,-0.23437 -0.192785,-0.35155 -0.02754,-0.12784 -0.04131,-0.23969 -0.04131,-0.33557 0,-0.18111 0.0459,-0.33557 0.137705,-0.4634 0.0918,-0.12785 0.220323,-0.19176 0.385564,-0.19176 0.146881,0 0.261635,0.0586 0.344256,0.17577 0.08262,0.11718 0.123931,0.25567 0.123931,0.41547 0,0.0959 -0.02293,0.19176 -0.06885,0.28764 -0.04592,0.0959 -0.110161,0.15446 -0.192782,0.17577 0.08262,0.14913 0.197374,0.25034 0.344254,0.30361 0.14688,0.0426 0.298353,0.0639 0.454416,0.0639 0.394744,0 0.807849,-0.13316 1.239317,-0.39949 0.440645,-0.26633 0.881291,-0.61255 1.321937,-1.03867 0.449824,-0.43677 0.895064,-0.92681 1.335704,-1.47011 0.44065,-0.55396 0.86293,-1.11857 1.26686,-1.69383 0.17442,-0.25567 0.39016,-0.56995 0.6472,-0.94279 0.26622,-0.37286 0.56457,-0.77767 0.89506,-1.21445 0.33048,-0.43677 0.68851,-0.87887 1.07407,-1.3263 0.39475,-0.45808 0.81244,-0.88953 1.25309,-1.29434 0.44064,-0.40482 0.89965,-0.76702 1.37701,-1.08661 0.47737,-0.31959 0.96392,-0.55928 1.45965,-0.71908 l 0.0413,0.0639 c -0.31213,0.33024 -0.63803,0.74039 -0.97769,1.23042 -0.33966,0.49004 -0.67474,1.0227 -1.00523,1.59796 -0.3213,0.5646 -0.62883,1.16118 -0.92259,1.78971 -0.29377,0.62852 -0.5554,1.25705 -0.78491,1.88558 -0.22032,0.61787 -0.39933,1.21445 -0.53703,1.78971 -0.12853,0.57527 -0.19279,1.10258 -0.19279,1.58197 0,0.33024 0.0459,0.61254 0.13771,0.84691 0.10098,0.22371 0.29835,0.33557 0.59211,0.33557 0.17442,0 0.3718,-0.0746 0.59212,-0.22371 0.2295,-0.14914 0.46819,-0.34623 0.71605,-0.59124 0.24787,-0.24502 0.49113,-0.51668 0.72982,-0.81496 0.24786,-0.29828 0.48196,-0.59123 0.70228,-0.87887 0.22032,-0.29829 0.4177,-0.57526 0.59212,-0.83093 0.17442,-0.26633 0.31212,-0.47939 0.41311,-0.63919 l 0.0964,0.048 c -0.31213,0.45808 -0.64261,0.94279 -0.99146,1.45414 -0.34885,0.51134 -0.70227,0.98006 -1.0603,1.40619 -0.35802,0.41547 -0.72064,0.76169 -1.08785,1.03867 -0.35802,0.27697 -0.70227,0.41547 -1.03276,0.41547 -0.22032,0 -0.40851,-0.0426 -0.56458,-0.12784 -0.14688,-0.0959 -0.27081,-0.22371 -0.37179,-0.3835 -0.10098,-0.1598 -0.17442,-0.3409 -0.22032,-0.54331 -0.0459,-0.20241 -0.0688,-0.41547 -0.0688,-0.63918 0,-0.60723 0.0734,-1.1878 0.22032,-1.74176 0.14688,-0.56461 0.31212,-1.11857 0.49573,-1.66187 z m 1.95537,-0.19175 c 0.4131,-0.99073 0.89965,-1.96017 1.45964,-2.90828 0.56917,-0.94812 1.23931,-1.8483 2.01044,-2.70054 l -0.0276,-0.032 c -0.48655,0.27698 -0.96391,0.61787 -1.43209,1.02269 -0.45901,0.40481 -0.90884,0.85224 -1.34949,1.34228 -0.44064,0.49004 -0.87211,1.01203 -1.29439,1.566 -0.41311,0.55395 -0.81703,1.12388 -1.21177,1.70981 z m 9.3775,-1.77373 c 0,0.44742 -0.0689,0.88952 -0.20655,1.3263 -0.1377,0.42612 -0.33049,0.80963 -0.57835,1.15052 -0.23869,0.34089 -0.52786,0.61788 -0.86752,0.83094 -0.33049,0.20241 -0.69769,0.30361 -1.10162,0.30361 -0.57834,0 -1.04194,-0.19708 -1.39079,-0.59124 -0.33966,-0.39417 -0.5095,-0.92681 -0.5095,-1.59796 0,-0.53265 0.10099,-1.04932 0.30295,-1.55001 0.20196,-0.50069 0.47737,-0.96943 0.82621,-1.4062 0.34885,-0.43677 0.75736,-0.83093 1.22554,-1.18248 0.46819,-0.36221 0.96851,-0.67115 1.50096,-0.92682 0.53244,-0.25567 1.08325,-0.45275 1.65242,-0.59124 0.57835,-0.13849 1.14293,-0.20773 1.69373,-0.20773 0.39474,0 0.79867,0.0373 1.21178,0.11185 0.42228,0.0746 0.7849,0.20241 1.08785,0.38351 0.0918,-0.0426 0.19737,-0.0906 0.31671,-0.14381 0.11933,-0.0533 0.24327,-0.10121 0.37179,-0.14382 0.13771,-0.0533 0.27081,-0.0959 0.39933,-0.12784 0.12853,-0.0426 0.24787,-0.0692 0.35803,-0.0799 l 0.0138,0.0959 c -0.22032,0.032 -0.44064,0.0959 -0.66096,0.19176 -0.21115,0.0959 -0.40852,0.2024 -0.59213,0.31959 0.69769,0.45808 1.04654,1.11857 1.04654,1.98146 0,0.56461 -0.0964,1.04933 -0.28917,1.45414 -0.18361,0.39416 -0.43147,0.71908 -0.74359,0.97475 -0.30295,0.24501 -0.65179,0.42612 -1.04654,0.54331 -0.39475,0.10652 -0.79867,0.15979 -1.21178,0.15979 v 0.032 c 0.28458,0.13849 0.49573,0.32492 0.63343,0.55929 0.14688,0.22371 0.22032,0.51666 0.22032,0.87887 0,0.23436 -0.0459,0.52199 -0.1377,0.8629 -0.0826,0.34089 -0.17901,0.69243 -0.28917,1.05464 -0.11016,0.35155 -0.21115,0.69244 -0.30294,1.02268 -0.0918,0.31959 -0.13771,0.58592 -0.13771,0.79898 0,0.34089 0.13311,0.51134 0.39934,0.51134 0.2754,0 0.59212,-0.10653 0.95014,-0.31958 0.3672,-0.22372 0.75277,-0.56461 1.1567,-1.0227 0.70687,-0.79897 1.37243,-1.77372 1.99668,-2.92424 l 0.12393,0.0639 c -0.21115,0.38351 -0.4636,0.81496 -0.75736,1.29434 -0.28458,0.46873 -0.63343,0.94811 -1.04653,1.43815 -0.90884,1.10791 -1.74882,1.66187 -2.51995,1.66187 -0.32131,0 -0.57835,-0.0906 -0.77113,-0.27164 -0.18361,-0.18111 -0.2754,-0.45276 -0.2754,-0.81496 0,-0.23438 0.0505,-0.51667 0.15147,-0.84692 0.11016,-0.33025 0.2295,-0.67113 0.35802,-1.02268 0.12852,-0.35156 0.24327,-0.7031 0.34426,-1.05465 0.10098,-0.35156 0.15146,-0.66049 0.15146,-0.92682 0,-0.40481 -0.0964,-0.67114 -0.28917,-0.79897 -0.1836,-0.12784 -0.42687,-0.21839 -0.72982,-0.27165 l 0.055,-0.1598 c 0.10099,0.0214 0.19738,0.0373 0.28918,0.048 0.0918,0.0106 0.18819,0.016 0.28917,0.016 0.40393,0 0.77114,-0.0852 1.10162,-0.25567 0.33049,-0.18111 0.61048,-0.4208 0.83998,-0.71908 0.23868,-0.30894 0.42228,-0.66582 0.55081,-1.07063 0.12852,-0.40482 0.19278,-0.83626 0.19278,-1.29434 0,-0.26633 -0.0459,-0.522 -0.1377,-0.76702 -0.0826,-0.24502 -0.21115,-0.4421 -0.38557,-0.59124 -0.46818,0.31959 -0.91801,0.80963 -1.34948,1.47011 -0.42228,0.64984 -0.84916,1.37957 -1.28063,2.1892 -0.42228,0.79898 -0.85834,1.61926 -1.30816,2.46085 -0.44064,0.84159 -0.90883,1.61393 -1.40456,2.31703 -0.49573,0.69244 -1.02358,1.26238 -1.58357,1.70981 -0.55999,0.43677 -1.17047,0.65516 -1.83144,0.65516 -0.14687,0 -0.29835,-0.0214 -0.45442,-0.0639 -0.15606,-0.0426 -0.29834,-0.10653 -0.42687,-0.19175 -0.11934,-0.0959 -0.22032,-0.21306 -0.30294,-0.35155 -0.0826,-0.14914 -0.12394,-0.31958 -0.12394,-0.51134 0,-0.19176 0.0505,-0.34623 0.15148,-0.46341 0.10098,-0.11718 0.23869,-0.17577 0.41311,-0.17577 0.12852,0 0.2295,0.048 0.30294,0.14382 0.0826,0.0959 0.12393,0.21305 0.12393,0.35154 0,0.12784 -0.0321,0.25035 -0.0964,0.36753 -0.0642,0.11718 -0.16065,0.17045 -0.28917,0.1598 0.0276,0.13848 0.12393,0.26632 0.28917,0.38351 0.16524,0.10652 0.35344,0.15979 0.56458,0.15979 0.47736,0 0.9226,-0.21306 1.33571,-0.63918 0.42229,-0.43678 0.83539,-0.99606 1.23932,-1.67785 0.4131,-0.6818 0.82161,-1.43816 1.22554,-2.26909 0.41311,-0.83094 0.84916,-1.6459 1.30817,-2.44487 0.46818,-0.79898 0.96851,-1.53404 1.50095,-2.20518 0.54163,-0.67114 1.13833,-1.18781 1.79012,-1.55001 -0.30294,-0.18111 -0.6426,-0.30361 -1.01899,-0.36753 -0.37639,-0.0639 -0.74359,-0.0959 -1.10161,-0.0959 -0.45901,0 -0.94555,0.0586 -1.45964,0.17577 -0.50491,0.11719 -1.00523,0.28763 -1.50095,0.51135 -0.48655,0.22371 -0.95474,0.50069 -1.40456,0.83093 -0.44983,0.33025 -0.84458,0.71375 -1.18424,1.15053 -0.33967,0.42612 -0.61048,0.90018 -0.81244,1.42218 -0.20196,0.51134 -0.30294,1.07063 -0.30294,1.67785 0,0.58591 0.12392,1.04932 0.37179,1.39022 0.24786,0.34089 0.59671,0.51134 1.04653,0.51134 0.39475,0 0.74819,-0.10653 1.06031,-0.31959 0.3213,-0.21306 0.59212,-0.48471 0.81244,-0.81495 0.2295,-0.33025 0.40393,-0.69778 0.52327,-1.10259 0.11934,-0.40482 0.17901,-0.79898 0.17901,-1.18248 z m 16.34521,-2.07734 c 0.1377,-0.33025 0.20655,-0.67647 0.20655,-1.03867 0,-0.44743 -0.10557,-0.74572 -0.31671,-0.89486 -0.21115,-0.15979 -0.49573,-0.23969 -0.85375,-0.23969 -0.41311,0 -0.86753,0.11718 -1.36325,0.35155 -0.49573,0.22371 -1.00063,0.53798 -1.51472,0.94279 -0.50491,0.40481 -0.99605,0.8842 -1.47342,1.43816 -0.46818,0.55395 -0.89046,1.15585 -1.26685,1.80569 -0.3672,0.64983 -0.66097,1.33162 -0.88129,2.04538 -0.22032,0.71375 -0.33048,1.43816 -0.33048,2.17321 0,0.29829 0.0321,0.59657 0.0964,0.89486 0.0642,0.29828 0.16524,0.56993 0.30295,0.81495 0.1377,0.23436 0.31671,0.42612 0.53704,0.57527 0.22032,0.13848 0.48654,0.20773 0.79867,0.20773 0.44982,0 0.8767,-0.11719 1.28063,-0.35155 0.4131,-0.24502 0.77113,-0.55928 1.07407,-0.94279 0.31212,-0.38351 0.55998,-0.80964 0.74359,-1.27836 0.1836,-0.47939 0.59594,-0.14711 0.5095,0.0799 -0.16524,0.45808 -0.41311,0.88953 -0.74359,1.29435 -0.33049,0.39415 -0.7436,0.72439 -1.23932,0.99073 -0.48655,0.26632 -1.04654,0.39948 -1.67996,0.39948 -0.47737,0 -0.8813,-0.0959 -1.21178,-0.28763 -0.32131,-0.19175 -0.58294,-0.43145 -0.7849,-0.71908 -0.20196,-0.28763 -0.34885,-0.59657 -0.44065,-0.92681 -0.0826,-0.3409 -0.12393,-0.65516 -0.12393,-0.94279 0,-0.67114 0.12393,-1.35294 0.37179,-2.04539 0.24787,-0.70309 0.57376,-1.37956 0.97769,-2.0294 0.41311,-0.64983 0.88588,-1.25706 1.41833,-1.82166 0.53245,-0.57526 1.07866,-1.07063 1.63865,-1.4861 0.56917,-0.42612 1.13375,-0.76169 1.69373,-1.00671 0.56917,-0.24502 1.08785,-0.36753 1.55604,-0.36753 0.57834,0 1.00981,0.13849 1.29439,0.41547 0.28458,0.27698 0.42688,0.68179 0.42688,1.21445 0,0.37285 -0.078,0.71907 -0.2341,1.03867 -0.2097,0.25812 -0.34858,0.26102 -0.46818,-0.30362 z m 6.94017,6.05624 c 0.3291,0.0351 -0.12393,0.76702 -0.37179,1.15052 -0.24786,0.37286 -0.56458,0.71376 -0.95015,1.02269 -0.38556,0.30893 -0.81703,0.55929 -1.29439,0.75104 -0.46819,0.19175 -0.93178,0.28763 -1.39079,0.28763 -0.50491,0 -0.95474,-0.0639 -1.34948,-0.19175 -0.38556,-0.12784 -0.71605,-0.30894 -0.99145,-0.5433 -0.26623,-0.23437 -0.47278,-0.51135 -0.61966,-0.83094 -0.1377,-0.31959 -0.20655,-0.67114 -0.20655,-1.05465 0,-0.53265 0.0872,-0.99072 0.26163,-1.37424 0.1836,-0.3835 0.4177,-0.71908 0.70228,-1.00671 0.29377,-0.28763 0.62883,-0.5433 1.00522,-0.76702 0.38556,-0.22371 0.77573,-0.43677 1.17047,-0.63917 0.15606,-0.0852 0.27999,-0.1598 0.37179,-0.22372 0.0918,-0.0746 0.16065,-0.17045 0.20655,-0.28763 0.0551,-0.11719 0.0918,-0.26633 0.11017,-0.44743 0.0184,-0.19175 0.0276,-0.4421 0.0276,-0.75103 0,-0.46874 0.0642,-0.91084 0.19278,-1.32631 0.12852,-0.42612 0.3213,-0.79897 0.57835,-1.11857 0.26622,-0.33024 0.59671,-0.59124 0.99145,-0.78299 0.40393,-0.19176 0.87212,-0.28763 1.40456,-0.28763 0.22033,0 0.44065,0.032 0.66097,0.0959 0.22032,0.0533 0.41769,0.14914 0.59212,0.28763 0.1836,0.12783 0.33048,0.29828 0.44064,0.51134 0.11935,0.20241 0.17902,0.44743 0.17902,0.73506 0,0.35155 -0.0689,0.66581 -0.20656,0.94279 -0.1377,0.27698 -0.57375,-0.11718 -0.50949,-0.35155 0.0734,-0.23437 0.11016,-0.4421 0.11016,-0.6232 0,-0.49004 -0.12393,-0.84691 -0.3718,-1.07063 -0.24786,-0.22371 -0.59211,-0.33557 -1.03276,-0.33557 -0.40393,0 -0.74359,0.10653 -1.01899,0.31959 -0.27541,0.20241 -0.49573,0.46341 -0.66097,0.783 -0.16525,0.30894 -0.28459,0.64983 -0.35803,1.02269 -0.0734,0.3622 -0.11016,0.69777 -0.11016,1.00671 0,0.40481 0.46324,1.08541 0.31636,1.36239 -0.14688,0.27698 -0.91765,0.16099 -1.23896,0.33144 l -1.07408,0.57527 c -0.34884,0.19175 -0.66097,0.42612 -0.93637,0.70309 -0.27541,0.26633 -0.50032,0.59657 -0.67474,0.99074 -0.16524,0.3835 -0.24786,0.87354 -0.24786,1.47011 0,0.33024 0.0597,0.65516 0.17901,0.97475 0.11934,0.31959 0.28458,0.60189 0.49572,0.84692 0.21115,0.23436 0.4636,0.42611 0.75737,0.57526 0.30294,0.14913 0.63343,0.22371 0.99145,0.22371 0.33048,0 0.67933,-0.0586 1.04653,-0.17577 0.36721,-0.11719 0.70229,-0.29296 1.00523,-0.52733 0.31212,-0.23437 0.56917,-0.52732 0.77113,-0.87888 0.20196,-0.3622 0.30886,-0.78304 0.30294,-1.26237 0,0 0.48402,-0.13949 0.74359,-0.11186 z m 3.05704,2.71652 c -0.23868,-0.0959 -0.49572,-0.14382 -0.77113,-0.14382 -0.0918,0 -0.22491,0.032 -0.39934,0.0959 -0.16524,0.0533 -0.35342,0.12251 -0.56457,0.20774 -0.21114,0.0852 -0.43147,0.15979 -0.66097,0.22371 -0.23868,0.0746 -0.46359,0.11185 -0.67474,0.11185 -0.11016,0 -0.20196,-0.0214 -0.2754,-0.0639 -0.0826,-0.0426 -0.12393,-0.10653 -0.12393,-0.19176 0,-0.0852 0.055,-0.15446 0.16524,-0.20772 0.11016,-0.0639 0.25245,-0.11719 0.42687,-0.15981 0.17442,-0.0426 0.36721,-0.0746 0.57835,-0.0959 0.20196,-0.0213 0.40393,-0.0374 0.60589,-0.048 0.20196,-0.0214 0.38556,-0.032 0.5508,-0.032 0.16525,-0.0106 0.28918,-0.0214 0.3718,-0.032 0.45901,-0.17045 0.88129,-0.47406 1.26686,-0.91084 0.38556,-0.44743 0.75736,-0.97475 1.11539,-1.58197 0.35802,-0.60722 0.71605,-1.26771 1.07407,-1.98146 0.35802,-0.72441 0.73441,-1.44881 1.12915,-2.17322 -0.28458,-0.0533 -0.55539,-0.14381 -0.81244,-0.27165 -0.25704,-0.13848 -0.48654,-0.31426 -0.68851,-0.52732 -0.19278,-0.21307 -0.34884,-0.45808 -0.46819,-0.73506 -0.11016,-0.28764 -0.16524,-0.6019 -0.16524,-0.9428 0,-0.22371 0.0367,-0.43677 0.11016,-0.63918 0.0826,-0.21306 0.1882,-0.39416 0.31672,-0.5433 0.12853,-0.14914 0.28458,-0.26633 0.46819,-0.35155 0.1836,-0.0959 0.37639,-0.14382 0.57835,-0.14382 0.17441,0 0.33966,0.0266 0.49572,0.0799 0.16524,0.0426 0.30294,0.0959 0.41311,0.1598 l -0.0551,0.17577 c -0.11017,-0.0639 -0.23869,-0.11718 -0.38557,-0.15979 -0.14688,-0.0426 -0.30754,-0.0639 -0.48196,-0.0639 -0.19278,0 -0.37179,0.0426 -0.53703,0.12783 -0.15607,0.0852 -0.28918,0.20241 -0.39934,0.35155 -0.11016,0.13849 -0.19737,0.29829 -0.26163,0.47939 -0.0642,0.17045 -0.0964,0.34622 -0.0964,0.52732 0,0.29829 0.0551,0.5806 0.16525,0.84692 0.11934,0.26632 0.2754,0.50602 0.46818,0.71908 0.19278,0.2024 0.41311,0.36753 0.66097,0.49536 0.25704,0.12784 0.52327,0.20241 0.79867,0.22372 0.25705,-0.45808 0.56458,-0.92149 0.92261,-1.39022 0.3672,-0.46874 0.76654,-0.89486 1.198,-1.27836 0.43147,-0.38351 0.88588,-0.69245 1.36325,-0.92682 0.47737,-0.24502 0.96392,-0.36753 1.45964,-0.36753 0.34885,0 0.62425,0.0906 0.82621,0.27166 0.21115,0.1811 0.31672,0.4634 0.31672,0.84691 0,0.35155 -0.11935,0.71375 -0.35803,1.08661 -0.23868,0.37286 -0.56917,0.71908 -0.99145,1.03867 -0.41311,0.30894 -0.90424,0.56461 -1.47341,0.76702 -0.56917,0.19175 -1.17964,0.28763 -1.83143,0.28763 h -0.39934 c -0.11016,-0.0106 -0.22491,-0.0214 -0.34425,-0.032 -0.33967,0.61787 -0.68392,1.25705 -1.03277,1.91754 -0.33966,0.64983 -0.71605,1.27303 -1.12915,1.86961 -0.40393,0.58591 -0.85376,1.12389 -1.34948,1.61393 -0.48655,0.49004 -1.04654,0.87888 -1.67997,1.16651 l 0.0276,0.032 c 0.0734,-0.0106 0.15148,-0.0214 0.2341,-0.032 0.0918,-0.0106 0.20158,-0.0525 0.31671,-0.016 2.96922,0.94009 3.01951,-0.11383 2.31863,-0.24105 3.08278,0.10242 0.2966,1.04195 -2.3324,0.56065 z m 8.73023,-10.94598 c -0.4131,0 -0.82161,0.13316 -1.22554,0.39949 -0.40392,0.25567 -0.78031,0.58059 -1.12916,0.97475 -0.34884,0.38351 -0.67015,0.8043 -0.96391,1.26238 -0.28458,0.44743 -0.52327,0.8629 -0.71605,1.24641 0.10098,0.0106 0.20656,0.0214 0.31672,0.032 h 0.38556 c 0.41311,0 0.85834,-0.0639 1.33571,-0.19175 0.48655,-0.12784 0.93637,-0.31427 1.34948,-0.55929 0.42228,-0.25567 0.77113,-0.56461 1.04653,-0.92681 0.28458,-0.37286 0.42688,-0.80431 0.42688,-1.29435 0,-0.30893 -0.0734,-0.5433 -0.22033,-0.7031 -0.1377,-0.15979 -0.33966,-0.23969 -0.60589,-0.23969 z m 4.86088,6.21604 c -0.44983,0.66048 -0.91343,1.29966 -1.39079,1.91754 -0.47737,0.60723 -0.95932,1.15053 -1.44587,1.62992 -0.47737,0.46872 -0.95474,0.84691 -1.4321,1.13454 -0.47737,0.27697 -0.93637,0.41547 -1.37702,0.41547 -0.30294,0 -0.54622,-0.0426 -0.72982,-0.12784 -0.17442,-0.0746 -0.31212,-0.16512 -0.41311,-0.27165 -0.0918,-0.11719 -0.15606,-0.23437 -0.19278,-0.35155 -0.0276,-0.12784 -0.0413,-0.23969 -0.0413,-0.33557 0,-0.18111 0.0459,-0.33557 0.1377,-0.4634 0.0918,-0.12785 0.22032,-0.19176 0.38557,-0.19176 0.14688,0 0.26163,0.0586 0.34425,0.17577 0.0826,0.11718 0.12394,0.25567 0.12394,0.41547 0,0.0959 -0.0229,0.19176 -0.0689,0.28764 -0.0459,0.0959 -0.11016,0.15446 -0.19278,0.17577 0.0826,0.14913 0.19737,0.25034 0.34425,0.30361 0.14688,0.0426 0.29835,0.0639 0.45442,0.0639 0.39474,0 0.80784,-0.13316 1.23931,-0.39949 0.44065,-0.26633 0.88129,-0.61255 1.32194,-1.03867 0.44982,-0.43677 0.89506,-0.92681 1.33571,-1.47011 0.44064,-0.55396 0.86293,-1.11857 1.26685,-1.69383 0.17442,-0.25567 0.39017,-0.56995 0.64721,-0.94279 0.26622,-0.37286 0.56457,-0.77767 0.89506,-1.21445 0.33048,-0.43677 0.68851,-0.87887 1.07407,-1.3263 0.39475,-0.45808 0.81244,-0.88953 1.25308,-1.29434 0.44065,-0.40482 0.89966,-0.76702 1.37703,-1.08661 0.47736,-0.31959 0.96391,-0.55928 1.45964,-0.71908 l 0.0413,0.0639 c -0.31212,0.33024 -0.63801,0.74039 -0.97767,1.23042 -0.33967,0.49004 -0.67475,1.0227 -1.00523,1.59796 -0.32131,0.5646 -0.62884,1.16118 -0.92261,1.78971 -0.29376,0.62852 -0.55539,1.25705 -0.78489,1.88558 -0.22032,0.61787 -0.39934,1.21445 -0.53704,1.78971 -0.12853,0.57527 -0.19278,1.10258 -0.19278,1.58197 0,0.33024 0.0459,0.61254 0.1377,0.84691 0.10098,0.22371 0.29835,0.33557 0.59212,0.33557 0.17442,0 0.37179,-0.0746 0.59211,-0.22371 0.2295,-0.14914 0.46819,-0.34623 0.71605,-0.59124 0.24787,-0.24502 0.49114,-0.51668 0.72982,-0.81496 0.24787,-0.29828 0.48196,-0.59123 0.70229,-0.87887 0.22032,-0.29829 0.41769,-0.57526 0.59211,-0.83093 0.17442,-0.26633 0.31212,-0.47939 0.4131,-0.63919 l 0.0964,0.048 c -0.31212,0.45808 -0.64261,0.94279 -0.99145,1.45414 -0.34885,0.51134 -0.70229,0.98006 -1.06031,1.40619 -0.35802,0.41547 -0.72064,0.76169 -1.08785,1.03867 -0.35802,0.27697 -0.70227,0.41547 -1.03275,0.41547 -0.22033,0 -0.40852,-0.0426 -0.56459,-0.12784 -0.14688,-0.0959 -0.27081,-0.22371 -0.37179,-0.3835 -0.10098,-0.1598 -0.17442,-0.3409 -0.22032,-0.54331 -0.0459,-0.20241 -0.0689,-0.41547 -0.0689,-0.63918 0,-0.60723 0.0734,-1.1878 0.22032,-1.74176 0.14688,-0.56461 0.31212,-1.11857 0.49572,-1.66187 z m 1.95536,-0.19175 c 0.41311,-0.99073 0.89965,-1.96017 1.45964,-2.90828 0.56917,-0.94812 1.23932,-1.8483 2.01045,-2.70054 l -0.0276,-0.032 c -0.48655,0.27698 -0.96391,0.61787 -1.4321,1.02269 -0.45901,0.40481 -0.90884,0.85224 -1.34948,1.34228 -0.44065,0.49004 -0.87211,1.01203 -1.2944,1.566 -0.4131,0.55395 -0.81703,1.12388 -1.21177,1.70981 z"
       id="text2"
       style="font-size:25.4px;font-family:'Snell Roundhand';-inkscape-font-specification:'Snell Roundhand';fill:#ffffff;stroke-width:0.154518"
       inkscape:label="path2"
       aria-label="MARCELA&#10;"
       sodipodi:nodetypes="cssssccsscscssccccccccscccccsccccscscccccssccscccsssssccssccccsccccccccsccccccsccscssscsccccccccccccccccccscccssssssccscccccssssccscsccscscscccccsccscsssccccccccscccccccscssscscsccsccccccsccccccscccssccccccscscssscccssccsscccccccssccssscssccsccccccssccsccsssccscccscsccccsssccsccccccscscscccccsssccscscscccscccccccscccscccsscssscccssccccssccssccsscscscscscscccccscccccscscscccsscccscccccscscssccsccccccccscccccccscccscsccccscccssssssccscccccssssccscsccscscscccccsccscsssccccccccscccc" />
    <path
       d="m 126.94167,153.0734 q -0.72294,1.25839 -1.80734,1.91754 -1.0844,0.65915 -2.25487,0.65915 -0.32704,0 -0.72293,-0.06 -0.3959,-0.0599 -0.809,-0.17976 -0.39589,-0.13982 -0.77458,-0.33957 -0.37867,-0.21971 -0.68851,-0.49936 -0.17212,0.17977 -0.39589,0.37952 -0.22376,0.17977 -0.51638,0.33956 -0.2754,0.1598 -0.61966,0.25967 -0.32704,0.0999 -0.74015,0.0999 -0.56801,0 -1.03276,-0.19974 -0.44753,-0.21972 -0.77457,-0.57926 -0.30983,-0.35954 -0.48196,-0.83893 -0.17212,-0.49936 -0.17212,-1.05864 0,-0.65915 0.20655,-1.23841 0.22376,-0.57926 0.58523,-1.07862 0.36147,-0.49936 0.809,-0.87887 0.46474,-0.37952 0.9467,-0.61921 0,-0.63918 0.22376,-1.39821 0.24098,-0.779 0.65409,-1.43816 0.4131,-0.67913 0.96391,-1.11856 0.55081,-0.45942 1.18768,-0.45942 0.46474,0 0.77458,0.31959 0.30982,0.29962 0.30982,0.87888 0,0.51933 -0.37868,0.97875 -0.36147,0.43943 -0.87785,0.83892 -0.51638,0.37951 -1.06719,0.67913 -0.53359,0.29962 -0.86063,0.51934 0.0173,1.35826 0.49917,2.59667 0.48195,1.23841 1.29095,2.19718 0.63687,-0.65915 1.15325,-1.41818 0.51639,-0.75903 0.98113,-1.39821 0.48195,-0.65915 0.9467,-1.07862 0.48196,-0.43943 1.01555,-0.43943 0.44753,0 0.74015,0.27964 0.30983,0.27964 0.30983,0.73905 0,0.1598 -0.0861,0.35954 -0.0689,0.19975 -0.18933,0.33957 -0.13771,-0.33957 -0.44754,-0.55929 -0.30983,-0.23969 -0.75736,-0.23969 -0.32704,0 -0.61965,0.1598 -0.27541,0.13982 -0.5336,0.39948 -0.24098,0.2397 -0.48196,0.55929 -0.24098,0.31959 -0.48195,0.67913 -0.77458,1.05864 -1.41145,1.75774 0.51638,0.59924 1.23932,1.0187 0.72293,0.41946 1.4803,0.41946 0.53359,0 1.04997,-0.17977 0.51638,-0.17977 0.98112,-0.49936 0.46475,-0.31959 0.86064,-0.73905 0.3959,-0.41946 0.68851,-0.91882 z m -5.81791,-7.23074 q 0,-0.8589 -0.61965,-0.8589 -0.37869,0 -0.809,0.41946 -0.41311,0.39949 -0.70573,1.17849 -0.25819,0.69911 -0.30982,1.23842 -0.0517,0.51933 -0.0517,0.91882 0.49917,-0.25967 0.9467,-0.53931 0.46475,-0.27964 0.80899,-0.6192 0.34426,-0.33957 0.5336,-0.75903 0.20656,-0.43944 0.20656,-0.97875 z m -5.04333,6.81128 q 0,0.47938 0.12049,0.93879 0.1377,0.45941 0.36146,0.81895 0.24099,0.33957 0.56803,0.55929 0.32704,0.19974 0.74015,0.19974 0.63687,0 1.0844,-0.21972 0.44753,-0.21972 0.77457,-0.51933 -0.9467,-0.91883 -1.49751,-2.25711 -0.53359,-1.35826 -0.53359,-2.79642 -0.3959,0.19975 -0.70572,0.55929 -0.29262,0.33956 -0.49917,0.779 -0.20656,0.43944 -0.30983,0.9388 -0.10328,0.49936 -0.10328,0.99872 z"
       id="text3"
       style="font-size:31.75px;font-family:'Snell Roundhand';-inkscape-font-specification:'Snell Roundhand';fill:#f9f9f9;fill-opacity:0.422983;stroke-width:0.154518"
       aria-label="&amp;"
       inkscape:label="path3" />
    <path
       d="m 102.48242,167.51963 q 0,-0.31959 0.0979,-0.65339 0.0979,-0.3409 0.26317,-0.66048 0.17136,-0.32669 0.39168,-0.61078 0.22033,-0.29118 0.47125,-0.50424 0.25093,-0.22016 0.50797,-0.3409 0.26316,-0.12783 0.50797,-0.12783 0.19584,0 0.33048,0.071 0.14076,0.071 0.22645,0.19886 0.0857,0.12784 0.1224,0.30538 0.0428,0.17045 0.0428,0.37641 0,0.29118 -0.10405,0.61788 -0.0979,0.32669 -0.26928,0.64628 -0.16525,0.31959 -0.39169,0.61077 -0.22644,0.28408 -0.47737,0.51135 -0.25092,0.22016 -0.51409,0.3551 -0.25704,0.12784 -0.50184,0.12784 -0.36109,0 -0.53245,-0.25567 -0.17136,-0.26278 -0.17136,-0.6676 z m 0.36721,0.0283 q 0,0.15626 0.0184,0.29829 0.0245,0.14204 0.0734,0.24857 0.0551,0.10653 0.13463,0.17045 0.0857,0.0639 0.21421,0.0639 0.29988,0 0.61201,-0.24146 0.31824,-0.24857 0.57529,-0.64629 0.26316,-0.39771 0.4284,-0.90195 0.17136,-0.50425 0.17136,-1.01559 0,-0.15625 -0.0306,-0.29829 -0.0245,-0.14204 -0.0918,-0.24857 -0.0612,-0.11363 -0.15912,-0.17755 -0.0979,-0.0639 -0.2448,-0.0639 -0.26929,0 -0.56917,0.25567 -0.29989,0.25567 -0.55081,0.66049 -0.25093,0.40481 -0.41617,0.90906 -0.16524,0.49714 -0.16524,0.98717 z m 2.5582,1.59086 3.39664,-4.39615 -0.0122,-0.0142 q -0.17748,0.17755 -0.35496,0.28408 -0.17749,0.10654 -0.42841,0.10654 -0.1224,0 -0.23256,-0.0426 -0.11016,-0.0497 -0.22033,-0.10654 -0.10404,-0.0568 -0.20808,-0.0994 -0.10404,-0.0497 -0.22644,-0.0497 -0.15301,0 -0.26317,0.0994 -0.11016,0.0994 -0.18972,0.22017 -0.0796,0.12074 -0.13464,0.22017 -0.055,0.0994 -0.0979,0.0994 -0.0367,0 -0.0367,-0.0568 0,-0.0284 0.049,-0.0923 0.049,-0.071 0.11016,-0.14204 0.0612,-0.0781 0.1224,-0.14914 0.0612,-0.071 0.0796,-0.10653 0.0612,-0.0994 0.12852,-0.24858 0.0673,-0.14913 0.12241,-0.26987 l 0.049,0.0213 q -0.049,0.12073 -0.11016,0.24147 -0.0551,0.11363 -0.11629,0.21306 l 0.0122,0.0142 q 0.15912,-0.14204 0.28764,-0.22727 0.12852,-0.0923 0.34272,-0.0923 0.11629,0 0.20809,0.0497 0.0979,0.0426 0.19584,0.0994 0.10404,0.0568 0.20808,0.10653 0.10404,0.0426 0.23257,0.0426 0.18972,0 0.3366,-0.0923 0.153,-0.0994 0.27541,-0.24857 l 0.0367,0.0284 -3.02333,4.51688 z m 3.15184,-1.27837 q 0.0918,0 0.15912,0.0781 0.0674,0.0781 0.0674,0.18465 0,0.10654 -0.0674,0.18465 -0.0674,0.0781 -0.15912,0.0781 -0.0918,0 -0.15912,-0.0781 -0.0673,-0.0781 -0.0673,-0.18465 0,-0.10653 0.0673,-0.18465 0.0674,-0.0781 0.15912,-0.0781 z m 7.77251,-1.38489 q -0.18972,0.49004 -0.459,0.85225 -0.26929,0.3622 -0.59977,0.59656 -0.33049,0.23437 -0.71605,0.34801 -0.38556,0.11362 -0.80173,0.11362 -0.12852,0 -0.21421,0.007 -0.0857,0.0142 -0.14076,0.0214 -0.0551,0.0142 -0.0918,0.0214 -0.0367,0.007 -0.0734,0.007 -0.0551,0 -0.0918,-0.0214 -0.0367,-0.0142 -0.0367,-0.0568 0,-0.0568 0.049,-0.0639 0.055,-0.0142 0.0857,-0.0142 0.0857,0 0.16525,0.0142 0.0796,0.0142 0.16524,0.0284 0.3672,-0.20595 0.62425,-0.58946 0.25704,-0.39061 0.459,-0.86645 0.20197,-0.48294 0.37333,-1.00848 0.17748,-0.52555 0.38557,-0.99429 0.2142,-0.47584 0.4896,-0.85224 0.27541,-0.38351 0.67321,-0.57526 l -0.0122,-0.0142 q -0.26317,0.0497 -0.56305,0.26988 -0.29988,0.22016 -0.60589,0.55396 -0.29988,0.32669 -0.59977,0.73861 -0.29376,0.40482 -0.56304,0.83804 -0.20809,0.3409 -0.42841,0.69599 -0.21421,0.35511 -0.44676,0.696 -0.23257,0.3338 -0.49573,0.64628 -0.26317,0.3125 -0.57529,0.57527 l -0.0428,-0.071 q 0.2142,-0.39062 0.34272,-0.83804 0.13464,-0.44743 0.2448,-0.90906 0.11628,-0.46163 0.23257,-0.91616 0.11628,-0.45453 0.29376,-0.86645 0.1836,-0.41191 0.45289,-0.75992 0.26928,-0.348 0.67932,-0.58947 l -0.0122,-0.0142 q -0.40392,0.15624 -0.74053,0.45453 -0.3366,0.29118 -0.62425,0.66759 -0.28764,0.3693 -0.53244,0.80253 -0.24481,0.42612 -0.47125,0.85224 -0.22645,0.42612 -0.43453,0.82383 -0.20808,0.39772 -0.4284,0.7031 -0.22032,0.29829 -0.47125,0.48294 -0.25092,0.17755 -0.56305,0.17755 -0.0795,0 -0.15912,-0.0142 -0.0734,-0.0142 -0.14076,-0.0568 -0.0612,-0.0426 -0.10405,-0.11364 -0.0367,-0.071 -0.0367,-0.18465 0,-0.10653 0.0612,-0.17754 0.0612,-0.071 0.153,-0.071 0.0796,0 0.12853,0.071 0.049,0.071 0.049,0.16334 0,0.0568 -0.0245,0.12073 -0.0184,0.0639 -0.0673,0.0781 0.006,0.0426 0.0734,0.071 0.0674,0.0284 0.12853,0.0284 0.26928,0 0.50184,-0.19176 0.23257,-0.19885 0.45289,-0.51845 0.22645,-0.32668 0.44677,-0.73861 0.22032,-0.41901 0.45901,-0.86644 0.28152,-0.51845 0.56304,-0.97298 0.28152,-0.45452 0.60589,-0.80963 0.32436,-0.3622 0.70993,-0.61077 0.39168,-0.24857 0.88741,-0.36221 l 0.006,0.0639 q -0.37944,0.13495 -0.63037,0.43323 -0.25092,0.29118 -0.43453,0.6889 -0.17748,0.39771 -0.31212,0.86644 -0.12852,0.46874 -0.26929,0.95168 -0.13463,0.47582 -0.29988,0.93746 -0.16524,0.46163 -0.41617,0.85224 l 0.0122,0.0142 q 0.22645,-0.22726 0.45289,-0.53265 0.23256,-0.31249 0.45289,-0.64629 0.22032,-0.34089 0.42228,-0.67468 0.20809,-0.3409 0.38557,-0.62499 0.47737,-0.75991 0.87518,-1.22154 0.3978,-0.46163 0.7344,-0.71021 0.33661,-0.25567 0.61201,-0.34089 0.28153,-0.0852 0.52021,-0.0852 0.0918,0 0.17748,0.0355 0.0857,0.0284 0.0857,0.0994 0,0.0568 -0.0367,0.071 -0.0367,0.0142 -0.0857,0.0142 -0.0857,0 -0.18361,-0.0214 -0.0918,-0.0284 -0.1836,-0.0284 -0.14076,0 -0.28764,0.14204 -0.14077,0.14204 -0.28765,0.3693 -0.14076,0.22727 -0.2754,0.51135 -0.13464,0.27698 -0.25092,0.55396 -0.11016,0.26987 -0.19585,0.50424 -0.0795,0.23437 -0.12852,0.3693 -0.0979,0.3054 -0.22644,0.65339 -0.12852,0.3409 -0.31825,0.6747 -0.18972,0.32669 -0.46512,0.61787 -0.26929,0.29119 -0.66097,0.49004 v 0.0142 q 0.93025,0 1.57286,-0.46874 0.64873,-0.46873 1.02205,-1.39909 z m 1.61571,-0.53265 h 0.3978 q -0.22644,0.3693 -0.43452,0.71731 -0.20808,0.34799 -0.37332,0.64628 -0.15913,0.29118 -0.25705,0.51844 -0.0979,0.22017 -0.0979,0.34801 0,0.18465 0.16524,0.18465 0.12853,0 0.32436,-0.14204 0.20197,-0.14915 0.43453,-0.40482 0.23256,-0.25567 0.47737,-0.59657 0.2448,-0.34089 0.46512,-0.7244 l 0.0367,0.0142 q -0.16524,0.29118 -0.39168,0.63207 -0.22032,0.3338 -0.46513,0.62498 -0.2448,0.29119 -0.48961,0.49004 -0.2448,0.19176 -0.459,0.19176 -0.17749,0 -0.26317,-0.0994 -0.0796,-0.10653 -0.0796,-0.24857 0,-0.0994 0.0245,-0.19176 0.0306,-0.0994 0.0612,-0.19886 l -0.0122,-0.007 q -0.0796,0.0994 -0.20196,0.23436 -0.11629,0.12784 -0.25705,0.24148 -0.13464,0.11363 -0.28153,0.19175 -0.14688,0.0781 -0.28151,0.0781 -0.22645,0 -0.31825,-0.16335 -0.0918,-0.16335 -0.0918,-0.36931 0,-0.29119 0.15913,-0.63918 0.15912,-0.3551 0.40392,-0.66049 0.2448,-0.31249 0.53244,-0.51845 0.28765,-0.20595 0.54469,-0.20595 0.1224,0 0.2142,0.0426 0.0918,0.0355 0.15301,0.10653 0.0612,0.0639 0.0918,0.14914 0.0367,0.0852 0.0551,0.17755 h 0.0122 z m -2.00127,1.98856 q 0,0.16335 0.0551,0.25568 0.0612,0.0852 0.16524,0.0852 0.10404,0 0.24481,-0.0852 0.14076,-0.0923 0.29376,-0.24147 0.153,-0.14914 0.29989,-0.3409 0.153,-0.19886 0.26928,-0.41901 0.11628,-0.22017 0.18972,-0.44744 0.0734,-0.22726 0.0734,-0.43321 0,-0.16335 -0.0796,-0.24858 -0.0796,-0.0852 -0.19584,-0.0852 -0.1836,0 -0.41005,0.18465 -0.22644,0.18466 -0.4284,0.47583 -0.20197,0.28409 -0.34273,0.63209 -0.13464,0.34799 -0.13464,0.66758 z m 3.70878,-1.98856 -0.77725,1.31387 0.0122,0.0142 q 0.0857,-0.12074 0.21421,-0.27699 0.13464,-0.16333 0.28764,-0.32669 0.15913,-0.17044 0.33049,-0.33379 0.17136,-0.16335 0.3366,-0.29118 0.0306,-0.071 0.0674,-0.11364 0.0367,-0.0426 0.14689,-0.0426 0.0673,0 0.11628,0.007 0.055,0 0.11016,0.007 -0.10405,0.12074 -0.20197,0.29829 -0.0979,0.17044 -0.0979,0.3764 0,0.16335 0.0674,0.25568 0.0734,0.0923 0.17748,0.0923 0.0918,0 0.17748,-0.0426 0.0918,-0.0426 0.17136,-0.10653 0.0796,-0.0639 0.15301,-0.13495 0.0734,-0.071 0.12851,-0.12783 l 0.0367,0.0284 q -0.0612,0.071 -0.14077,0.15624 -0.0796,0.0781 -0.17136,0.14915 -0.0918,0.071 -0.19584,0.12073 -0.10404,0.0426 -0.2142,0.0426 -0.19585,0 -0.31825,-0.13494 -0.11628,-0.14204 -0.11628,-0.39061 0,-0.17045 0.0674,-0.30538 l -0.0122,-0.0142 q -0.25092,0.19885 -0.5508,0.52555 -0.29988,0.31959 -0.63649,0.75991 -0.1224,0.15624 -0.25705,0.41192 -0.12851,0.25567 -0.22644,0.52555 H 117.942 q 0.33049,-0.61078 0.66098,-1.21445 0.33048,-0.60367 0.67932,-1.22865 z m 3.85565,0.57526 q -0.12853,0.28409 -0.34273,0.62499 -0.20808,0.33379 -0.459,0.62497 -0.24481,0.28408 -0.50797,0.48294 -0.26316,0.19175 -0.49573,0.19175 -0.14076,0 -0.25093,-0.0568 -0.11016,-0.0497 -0.2142,-0.11363 -0.10404,-0.0639 -0.2142,-0.11363 -0.11016,-0.0568 -0.25092,-0.0568 -0.0857,0 -0.15912,0.0568 -0.0673,0.0497 -0.1224,0.10653 -0.055,0.0568 -0.0979,0.11364 -0.0428,0.0497 -0.0857,0.0497 -0.0367,0 -0.0367,-0.0497 0,-0.0426 0.2142,-0.23438 0.22032,-0.19885 0.56305,-0.49713 0.34272,-0.29829 0.76501,-0.6747 0.42841,-0.38351 0.8507,-0.78832 l -0.0122,-0.0142 q -0.0734,0.071 -0.20196,0.12073 -0.12852,0.0497 -0.25705,0.0497 -0.0674,0 -0.153,-0.0355 -0.0796,-0.0355 -0.17136,-0.0781 -0.0857,-0.0426 -0.17748,-0.0781 -0.0918,-0.0355 -0.17749,-0.0355 -0.0734,0 -0.13463,0.0497 -0.0612,0.0497 -0.11629,0.12784 -0.049,0.071 -0.0979,0.15624 -0.0428,0.0852 -0.0857,0.15625 l -0.0428,-0.0214 q 0.0734,-0.14914 0.13464,-0.27698 0.0674,-0.12783 0.14688,-0.22017 0.0796,-0.0923 0.17748,-0.14203 0.10404,-0.0568 0.23868,-0.0568 0.14077,0 0.25093,0.0355 0.11016,0.0355 0.20196,0.0781 0.0918,0.0426 0.17136,0.0781 0.0796,0.0355 0.14689,0.0355 0.153,0 0.23868,-0.0497 0.0857,-0.0568 0.13464,-0.12073 0.0551,-0.0639 0.0857,-0.11364 0.0367,-0.0568 0.0734,-0.0568 0.0367,0 0.0367,0.0568 0,0.0284 -0.14076,0.17755 -0.14076,0.14915 -0.36109,0.36221 -0.22032,0.20595 -0.4896,0.46163 -0.26929,0.24857 -0.53857,0.48293 -0.26316,0.23437 -0.49573,0.42613 -0.22644,0.19175 -0.36108,0.29118 l 0.0122,0.0142 q 0.1224,-0.0568 0.23256,-0.0923 0.11629,-0.0355 0.22033,-0.0355 0.12852,0 0.23868,0.0497 0.11628,0.0426 0.21421,0.0994 0.0979,0.0568 0.17748,0.10653 0.0857,0.0426 0.153,0.0426 0.16524,0 0.3672,-0.14915 0.20808,-0.15624 0.41005,-0.3977 0.20808,-0.24858 0.40393,-0.55396 0.20196,-0.31249 0.36108,-0.62499 z m 2.68672,0.071 q -0.14688,0.19176 -0.33048,0.30538 -0.18361,0.11364 -0.36109,0.11364 -0.17136,0 -0.29376,-0.0852 -0.12241,-0.0923 -0.18973,-0.21306 h -0.0122 q -0.0612,0.26988 -0.22644,0.57527 -0.16524,0.30539 -0.39781,0.56106 -0.22644,0.25568 -0.50184,0.42612 -0.27541,0.17045 -0.56305,0.17045 -0.26317,0 -0.39781,-0.17756 -0.13464,-0.17754 -0.13464,-0.47582 0,-0.15625 0.0673,-0.36222 0.0674,-0.20595 0.1836,-0.4119 0.12241,-0.21306 0.28153,-0.41193 0.16524,-0.20596 0.35497,-0.36219 0.18972,-0.16336 0.3978,-0.25568 0.2142,-0.0994 0.42841,-0.0994 0.25092,0 0.38557,0.17045 0.14076,0.17045 0.153,0.44033 0.0122,0.16334 0.12852,0.30539 0.1224,0.13493 0.33049,0.13493 0.1836,0 0.34272,-0.10653 0.16524,-0.10653 0.306,-0.27698 z m -3.07841,1.37069 q 0,0.18466 0.0612,0.29118 0.0612,0.10654 0.1836,0.10654 0.16524,0 0.32437,-0.0994 0.16524,-0.10652 0.31212,-0.26988 0.153,-0.17044 0.28153,-0.3835 0.12852,-0.21306 0.22032,-0.44033 0.0979,-0.22726 0.153,-0.44032 0.055,-0.22017 0.055,-0.39772 0,-0.14913 -0.0674,-0.24857 -0.0612,-0.10652 -0.19584,-0.10652 -0.12852,0 -0.2754,0.0994 -0.14689,0.0923 -0.29989,0.24857 -0.14688,0.15625 -0.28152,0.36221 -0.13464,0.20596 -0.2448,0.42612 -0.10404,0.22017 -0.16524,0.44032 -0.0612,0.22017 -0.0612,0.41192 z m 2.94377,-0.0994 q 0.0918,0 0.15912,0.0781 0.0673,0.0781 0.0673,0.18466 0,0.10653 -0.0673,0.18465 -0.0674,0.0781 -0.15912,0.0781 -0.0918,0 -0.15912,-0.0781 -0.0674,-0.0781 -0.0674,-0.18465 0,-0.10653 0.0674,-0.18466 0.0673,-0.0781 0.15912,-0.0781 z m 3.98418,-0.63918 q -0.0918,0.20595 -0.21421,0.42612 -0.11628,0.21306 -0.26928,0.39061 -0.153,0.17755 -0.34273,0.29118 -0.18972,0.11364 -0.41616,0.11364 -0.1224,0 -0.25093,-0.071 -0.12239,-0.0781 -0.25704,-0.15624 -0.13464,-0.0781 -0.2754,-0.14915 -0.14077,-0.071 -0.29989,-0.071 -0.17747,0 -0.29988,0.071 -0.11628,0.0639 -0.18972,0.14915 -0.0734,0.0852 -0.12241,0.15624 -0.0428,0.071 -0.0734,0.071 -0.0306,0 -0.0367,-0.0214 0,-0.0213 0,-0.0497 0,-0.11364 0.42229,-0.41902 0.42841,-0.31249 1.30358,-0.77412 0.41617,-0.22017 0.67933,-0.42612 0.26316,-0.20596 0.41005,-0.41192 0.14688,-0.21306 0.20196,-0.41902 0.0551,-0.20595 0.0551,-0.42612 0,-0.3622 -0.16525,-0.58947 -0.15912,-0.22726 -0.47124,-0.22726 -0.13464,0 -0.28152,0.0568 -0.14077,0.0568 -0.25705,0.17044 -0.11628,0.10654 -0.19584,0.26278 -0.0734,0.15624 -0.0734,0.3551 0,0.18466 0.0979,0.33379 0.10404,0.14205 0.26317,0.14205 0.0734,0 0.11627,-0.0214 0.049,-0.0213 0.11628,-0.0568 l 0.0245,0.0214 q -0.0673,0.14204 -0.1836,0.22726 -0.11628,0.0852 -0.26317,0.0852 -0.18972,0 -0.306,-0.14205 -0.11016,-0.14913 -0.11016,-0.3977 0,-0.18466 0.0734,-0.38352 0.0796,-0.20595 0.22644,-0.3764 0.14688,-0.17045 0.36109,-0.27698 0.2142,-0.11364 0.48961,-0.11364 0.23868,0 0.41004,0.0781 0.17749,0.0781 0.29377,0.20596 0.11628,0.12073 0.17136,0.28408 0.055,0.15624 0.055,0.31959 0,0.348 -0.14075,0.61788 -0.13465,0.26277 -0.36721,0.47583 -0.22645,0.20596 -0.52633,0.3764 -0.29376,0.16335 -0.60589,0.3196 -0.31212,0.14914 -0.61813,0.30538 -0.29989,0.15625 -0.54469,0.34801 l 0.0122,0.0284 q 0.0918,-0.0568 0.18973,-0.10654 0.0979,-0.0497 0.2142,-0.0497 0.10404,0 0.24481,0.0639 0.14687,0.0568 0.29987,0.12783 0.14689,0.071 0.28765,0.13494 0.14076,0.0639 0.23868,0.0639 0.14077,0 0.26929,-0.0994 0.13464,-0.0994 0.2448,-0.24147 0.11016,-0.14204 0.19585,-0.30538 0.0918,-0.17045 0.14688,-0.29829 z m 0.64873,0.29829 q 0,-0.3196 0.0979,-0.65339 0.0979,-0.3409 0.26317,-0.66049 0.17136,-0.32669 0.39168,-0.61077 0.22033,-0.29119 0.47125,-0.50425 0.25092,-0.22016 0.50797,-0.34089 0.26316,-0.12784 0.50797,-0.12784 0.19584,0 0.33048,0.071 0.14077,0.071 0.22645,0.19885 0.0857,0.12784 0.1224,0.30539 0.0428,0.17045 0.0428,0.37641 0,0.29118 -0.10404,0.61787 -0.0979,0.3267 -0.26929,0.64628 -0.16524,0.3196 -0.39168,0.61078 -0.22644,0.28408 -0.47737,0.51135 -0.25092,0.22016 -0.51409,0.3551 -0.25704,0.12783 -0.50184,0.12783 -0.36109,0 -0.53245,-0.25567 -0.17136,-0.26278 -0.17136,-0.66758 z m 0.3672,0.0284 q 0,0.15623 0.0184,0.29828 0.0245,0.14204 0.0734,0.24857 0.0551,0.10653 0.13464,0.17045 0.0857,0.0639 0.2142,0.0639 0.29989,0 0.61201,-0.24147 0.31825,-0.24857 0.57529,-0.64628 0.26317,-0.39771 0.42841,-0.90196 0.17136,-0.50424 0.17136,-1.01559 0,-0.15624 -0.0306,-0.29828 -0.0245,-0.14205 -0.0918,-0.24857 -0.0612,-0.11364 -0.15913,-0.17755 -0.0979,-0.0639 -0.2448,-0.0639 -0.26928,0 -0.56917,0.25567 -0.29989,0.25567 -0.55081,0.66049 -0.25092,0.40482 -0.41617,0.90906 -0.16524,0.49714 -0.16524,0.98719 z m 5.10415,-0.3267 q -0.0918,0.20596 -0.2142,0.42612 -0.11628,0.21306 -0.26928,0.39061 -0.153,0.17755 -0.34273,0.29119 -0.18971,0.11363 -0.41616,0.11363 -0.1224,0 -0.25093,-0.071 -0.1224,-0.0781 -0.25704,-0.15625 -0.13464,-0.0781 -0.2754,-0.14913 -0.14077,-0.071 -0.29989,-0.071 -0.17748,0 -0.29988,0.071 -0.11628,0.0639 -0.18973,0.14913 -0.0734,0.0852 -0.1224,0.15625 -0.0428,0.071 -0.0734,0.071 -0.0306,0 -0.0367,-0.0214 0,-0.0213 0,-0.0497 0,-0.11362 0.42229,-0.41902 0.4284,-0.31248 1.30357,-0.77411 0.41617,-0.22016 0.67933,-0.42612 0.26316,-0.20597 0.41005,-0.41192 0.14688,-0.21306 0.20196,-0.41902 0.055,-0.20596 0.055,-0.42613 0,-0.36219 -0.16524,-0.58946 -0.15912,-0.22727 -0.47125,-0.22727 -0.13464,0 -0.28152,0.0568 -0.14076,0.0568 -0.25705,0.17045 -0.11628,0.10653 -0.19583,0.26278 -0.0734,0.15624 -0.0734,0.3551 0,0.18465 0.0979,0.3338 0.10404,0.14203 0.26316,0.14203 0.0734,0 0.11629,-0.0213 0.049,-0.0214 0.11628,-0.0568 l 0.0245,0.0213 q -0.0673,0.14203 -0.1836,0.22726 -0.11628,0.0852 -0.26316,0.0852 -0.18973,0 -0.30601,-0.14203 -0.11016,-0.14915 -0.11016,-0.39772 0,-0.18465 0.0734,-0.38351 0.0796,-0.20595 0.22644,-0.37641 0.14689,-0.17045 0.36109,-0.27698 0.2142,-0.11362 0.48961,-0.11362 0.23868,0 0.41005,0.0781 0.17748,0.0781 0.29376,0.20596 0.11628,0.12074 0.17136,0.28409 0.0551,0.15624 0.0551,0.31958 0,0.34801 -0.14077,0.61789 -0.13464,0.26276 -0.3672,0.47582 -0.22644,0.20597 -0.52633,0.37641 -0.29376,0.16335 -0.60589,0.3196 -0.31212,0.14914 -0.61813,0.30538 -0.29988,0.15625 -0.54469,0.348 l 0.0122,0.0284 q 0.0918,-0.0568 0.18973,-0.10652 0.0979,-0.0497 0.2142,-0.0497 0.10404,0 0.2448,0.0639 0.14689,0.0568 0.29989,0.12784 0.14688,0.071 0.28764,0.13493 0.14076,0.0639 0.23869,0.0639 0.14076,0 0.26928,-0.0994 0.13464,-0.0994 0.2448,-0.24147 0.11016,-0.14204 0.19585,-0.30539 0.0918,-0.17045 0.14687,-0.29828 z m 2.83972,-0.96587 q 0,-0.11363 -0.0122,-0.22727 -0.0122,-0.11363 -0.0551,-0.20595 -0.0428,-0.0923 -0.11628,-0.14915 -0.0734,-0.0568 -0.19584,-0.0568 -0.18972,0 -0.42229,0.17755 -0.22644,0.17755 -0.4284,0.46873 -0.19585,0.28408 -0.33049,0.66049 -0.13464,0.36931 -0.13464,0.75991 0,0.11364 0.0122,0.23437 0.0184,0.12073 0.0551,0.22017 0.0428,0.0923 0.11628,0.15623 0.0796,0.0639 0.20808,0.0639 0.23869,0 0.47124,-0.20594 0.23257,-0.20596 0.41617,-0.51845 0.18361,-0.3125 0.29989,-0.6818 0.11628,-0.3693 0.11628,-0.696 z m -1.32806,-0.007 q 0.0979,-0.13494 0.21421,-0.26988 0.11628,-0.13494 0.25092,-0.24146 0.13465,-0.10654 0.28765,-0.17045 0.153,-0.0639 0.31824,-0.0639 0.31212,0 0.46513,0.20596 0.15912,0.19886 0.15912,0.56816 0,0.32669 -0.15912,0.7031 -0.15912,0.37641 -0.41005,0.7031 -0.25092,0.3267 -0.56305,0.54686 -0.306,0.21306 -0.59976,0.21306 -0.17137,0 -0.29989,-0.0781 -0.1224,-0.0852 -0.20808,-0.22017 -0.0796,-0.13493 -0.11628,-0.30538 -0.0367,-0.17755 -0.0367,-0.3551 0,-0.43323 0.15912,-0.89486 0.15912,-0.46163 0.42841,-0.90195 0.26928,-0.44034 0.61813,-0.83094 0.35496,-0.39771 0.74665,-0.696 0.39168,-0.29828 0.78949,-0.46874 0.40392,-0.17754 0.77113,-0.17754 0.2142,0 0.36721,0.0568 0.153,0.0497 0.2448,0.13493 0.0979,0.0852 0.14076,0.19886 0.049,0.11363 0.049,0.23437 0,0.15624 -0.0673,0.26987 -0.0674,0.10653 -0.14076,0.17046 0.006,-0.0568 0.006,-0.0852 0.006,-0.0284 0.006,-0.0852 0,-0.10653 -0.0367,-0.24147 -0.0306,-0.14204 -0.11628,-0.25567 -0.0796,-0.12073 -0.2142,-0.19886 -0.13465,-0.0852 -0.34273,-0.0852 -0.44676,0 -0.86293,0.26987 -0.41617,0.26278 -0.77113,0.6605 -0.34885,0.3906 -0.63037,0.85224 -0.27541,0.45453 -0.459,0.83804 z"
       id="text4"
       style="font-size:11.2889px;font-family:'Snell Roundhand';-inkscape-font-specification:'Snell Roundhand';fill:#f9f9f9;stroke-width:0.154518"
       aria-label="07.Marzo.2026"
       inkscape:label="path4" />
  </g>
</svg>
