<?xml version="1.0" encoding="utf-8"?>
<!-- Generator: Adobe Illustrator 26.3.1, SVG Export Plug-In . SVG Version: 6.00 Build 0)  -->
<svg version="1.1" id="Capa_3" xmlns="http://www.w3.org/2000/svg" xmlns:xlink="http://www.w3.org/1999/xlink" x="0px" y="0px"
	 viewBox="0 0 766 811.4" style="enable-background:new 0 0 766 811.4;" xml:space="preserve">
<style type="text/css">
	.st0{fill:#FFFFFF;}
</style>
<g>
	<g>
		<path class="st0" d="M636.7,744.3H129.3V403.9h507.5V744.3z M134.3,739.3h497.5V408.9H134.3V739.3z"/>
	</g>
	<g>
		<path class="st0" d="M673.5,408.9h-581V304.6h581V408.9z M97.5,403.9h571v-94.3h-571V403.9z"/>
	</g>
	<g>
		<path class="st0" d="M385.3,741.8h-5V307.5l0.1-0.3c0.1-0.5,15.3-55.8,38.1-112.5c30.9-76.6,60.5-119.2,88-126.5
			c12.5-3.3,24.4,0.6,35.4,11.7c13.7,13.7,19.1,30.3,16.1,49.4c-11.8,75.6-151.1,168-172.8,180.1V741.8z M515.1,72.1
			c-2.4,0-4.8,0.3-7.2,1c-56.5,15-110.9,194.7-120.9,229.6c14.9-9,50-32.8,83-61.4c34.6-30,77.1-73.8,83.2-112.8
			c2.7-17.4-2.2-32.6-14.7-45.1C530.8,75.8,523.2,72.1,515.1,72.1z"/>
	</g>
	<g>
		<path class="st0" d="M385.3,741.8h-5V309.2C367.7,301,257.5,227.8,246.6,161c-2.8-17.3,1.3-32.9,12.2-46.3
			c8.7-10.6,18.1-14.9,28.1-12.6c50.9,11.6,96.4,197.2,98.3,205.1l0.1,0.3V741.8z M281.8,106.6c-6.6,0-12.8,3.7-19,11.3
			c-10,12.2-13.8,26.4-11.2,42.3c4.3,26.5,26.7,58.8,64.9,93.4c25.8,23.4,51.5,41.4,62.4,48.6c-3.8-14.5-14-52.5-27.9-91
			c-23.1-63.8-45.6-99.8-65.1-104.3C284.5,106.7,283.1,106.6,281.8,106.6z"/>
	</g>
</g>
</svg>
