<?xml version="1.0" encoding="utf-8"?>
<!-- Generator: Adobe Illustrator 26.3.1, SVG Export Plug-In . SVG Version: 6.00 Build 0)  -->
<svg version="1.1" id="Layer_1" xmlns="http://www.w3.org/2000/svg" xmlns:xlink="http://www.w3.org/1999/xlink" x="0px" y="0px"
	 viewBox="0 0 360 384" style="enable-background:new 0 0 360 384;" xml:space="preserve">
<style type="text/css">
	.st0{fill:#D6D1BF;}
</style>
<g id="KImyZr">
	<g>
		<path class="st0" d="M135.4,342c-6.2-1.8-11-5.6-13.7-11.3c-2.2-4.8-4-10-4.9-15.2c-1.3-7.8-2-15.8-2.4-23.8
			c-0.5-8.6-0.8-17.3-0.6-25.9c0.2-10.5,1-21,1.7-31.6c0.5-7.5,1.2-15,1.7-22.5c0.6-8.1,1.2-16.2,1.8-24.2c0.1-1,0.3-2.1,0.6-3.1
			c1.3-5.7-2.8-8.2-6.3-11.2c-5.3-4.6-10.6-9.3-15.3-14.4c-4.7-5.2-6.8-11.9-7.6-18.9c-0.5-4.3-0.6-8.7-0.6-13
			c-0.1-25.8,0-51.5,0-77.3c0-3.1,0.6-5.8,3.5-7.6h22.9c3.1,1.4,4.1,4,4.1,7.1c0,6.1,0,12.3,0,18.4c0,13.5,0,27.1,0,40.7
			c0,0.6,0,1.2,0,1.8c-0.1,2,0.8,3.5,2.9,3.5c2.3,0,2.4-1.7,2.4-3.5c0-19.8,0-39.6,0-59.4c0-3.6,1.1-6.5,4.1-8.6h22.9
			c3.1,2,4.1,5.1,4.1,8.6c0,19.8,0,39.6,0,59.4c0,1.8,0.1,3.6,2.4,3.5c2-0.1,3-1.5,2.9-3.6c0-0.6,0-1.2,0-1.8c0-19.6,0-39.2,0-58.8
			c0-3.2,0.9-5.6,3.6-7.3h22.9c2.5,1.8,4.2,3.9,4.1,7.3c-0.1,28.3,0.1,56.6-0.1,84.9c0,6-1.3,11.9-3.8,17.5
			c-4.2,9.7-11.9,16.2-20.2,22c-4.2,2.9-6.5,6.1-5.9,11.5c1,8.8,1.7,17.6,2.4,26.5c0.6,7.9,1.3,15.8,1.8,23.7
			c0.7,10.7,1.4,21.4,1.7,32.2c0.2,8.3,0,16.7-0.6,25.1c-0.6,8.6-1.3,17.3-3,25.7c-2.1,10.6-6.3,20.1-18,23.7L135.4,342L135.4,342z
			 M138.3,54.4v3.3c0,17.5,0.1,35,0,52.4c0,5.8-2.3,10.6-7.4,13.8c-5.2,3.3-10.5,3.2-15.7,0.1c-4.6-2.8-7.4-6.9-7.4-12.5
			c0-18,0-35.9,0-53.9v-3.1h-5.7c-0.1,0.4-0.2,0.6-0.2,0.8c0.2,26.4,0.4,52.8,0.5,79.3c0,6.8,2,13,6.6,17.9c4.1,4.4,8.9,8.2,13.5,12
			c3.6,3,7.2,5.9,8.5,10.5c0.7,2.6,0.7,5.4,0.6,8.1c-0.1,5.4-0.2,10.9-0.6,16.3c-0.6,8.1-1.6,16.1-2.2,24.2
			c-0.6,7-0.8,14.1-1.2,21.2c-0.2,3.3-0.4,6.6-0.6,9.8c-0.4,7.8-1,15.7-1.1,23.5c0,6.9,0.8,13.7,1.1,20.6c0.3,7.8,1.6,15.4,4.2,22.8
			c1.1,3,2.1,6.4,5.6,7.6c6.3,2.2,10.5-0.1,13-6.3c4-9.5,4.6-19.8,5.2-29.9c0.5-8,0.2-16,0.1-24c0-4.5-0.3-9.1-0.6-13.7
			c-0.7-11.5-1.6-22.9-2.3-34.4c-0.4-6.2-0.7-12.3-1.2-18.5c-0.3-3.5-0.9-7.1-1.1-10.6c-0.3-4.2-0.7-8.5-0.4-12.7
			c0.5-6.5,4.8-10.7,9.8-14.4c4.7-3.5,9.3-7.3,13.3-11.6c6.2-6.7,7-15.4,7.1-24c0.2-23.9,0.1-47.8,0.1-71.8c0-0.9-0.1-1.7-0.1-2.6
			H174v3.4c0,18.1,0,36.1,0,54.2c0,8.3-9,15.7-18,13.9c-7.1-1.4-12.5-8.3-12.4-16c0.1-17.5,0-35,0-52.4c0-1,0-2.1,0-3.1L138.3,54.4
			L138.3,54.4z"/>
		<path class="st0" d="M217.4,42c3.8,1.2,7.8,2.2,11.5,3.8c9.4,3.9,16.2,10.9,21.8,19.2c7.6,11.4,12,24.1,14.7,37.3
			c1.7,8.4,3.2,17,4,25.5c1.2,11.9,1.8,23.9-2.7,35.4c-2.3,5.8-5.3,11.1-9.5,15.6c-5.3,5.7-10.9,11.1-16.1,16.9
			c-3.9,4.2-7.2,8.9-6.5,15.1c0.3,2.4,1.1,4.9,2.1,7.1c4.6,9.7,10,19,12.5,29.5c1.4,5.7,2.4,11.7,2.8,17.5c0.5,8,0.5,16,0,24
			c-0.8,12.5-1.1,25.2-5.3,37.2c-2.5,7.3-6.6,13.5-14.8,15.4c-0.1,0-0.2,0.3-0.3,0.4h-12.9c-8.7-2.8-13.3-9.2-15.9-17.6
			c-3.2-10.4-3.7-21.1-4.5-31.8c-0.5-7.3-0.6-14.6-0.6-21.8c0-3.9,0.3-7.7,0.6-11.6c0.4-6.6,0.7-13.1,1.2-19.7
			c0.7-11.2,1.6-22.3,2.3-33.5c0.5-7.9,0.9-15.9,1.2-23.8c0.3-7,0.6-14,0.6-21c0.1-36.9,0-73.8,0-110.6c0-3.6,1.1-6.5,4.1-8.6
			C210.8,42,214.1,42,217.4,42L217.4,42z M216.2,55.1c0,1.2,0,2.2,0,3.3c-0.2,32.1-0.3,64.2-0.6,96.2c-0.1,12.6-0.7,25.2-1.1,37.8
			c-0.3,9-0.8,18-1.2,27c-0.1,3.1-0.4,6.2-0.6,9.3c-0.8,9.8-2,19.6-2.2,29.4c-0.3,11.7,0.1,23.4,0.5,35c0.2,6.3,0.8,12.7,1.8,19
			c0.7,4.5,2.1,8.9,3.9,13.1c2.4,5.5,12.1,6.5,15.4,1.7c1.6-2.3,2.6-5.1,3.4-7.8c3.7-13.2,3.2-26.9,4.1-40.4
			c0.3-5.3-0.3-10.7-0.5-16c-0.2-7-2.2-13.6-4.9-19.9c-3.4-7.9-7.5-15.5-10.8-23.5c-3.4-8.3-2.4-16.7,2.5-24.1
			c3.1-4.8,7.1-9.1,11-13.4c4.1-4.6,8.8-8.6,12.5-13.4c6.2-8.1,9-17.3,7.9-27.6c-0.9-8.6-1.3-17.3-2.4-25.9
			c-1.7-13.4-5.4-26.2-12-38c-2.4-4.4-5.4-8.7-8.9-12.3C229.3,59.6,223.6,56,216.2,55.1L216.2,55.1z"/>
	</g>
</g>
</svg>
