<?xml version="1.0" encoding="utf-8"?>
<!-- Generator: Adobe Illustrator 26.3.1, SVG Export Plug-In . SVG Version: 6.00 Build 0)  -->
<svg version="1.1" id="Layer_1" xmlns="http://www.w3.org/2000/svg" xmlns:xlink="http://www.w3.org/1999/xlink" x="0px" y="0px"
	 viewBox="0 0 360 384" style="enable-background:new 0 0 360 384;" xml:space="preserve">
<style type="text/css">
	.st0{fill:#D6D1BF;}
</style>
<g id="mbUnsd.tif">
	<g>
		<path class="st0" d="M45.4,332.2c0.6-4.1,1.3-8.2,1.8-12.3c2-17,3.9-34.1,5.9-51.1c1.9-16.6,3.7-33.1,5.6-49.7s3.8-33.1,5.7-49.7
			c1.7-14.9,3.4-29.7,5.1-44.6c0.2-1.4,0.3-2.8,0.6-4.1c0.7-2.9,2.5-4.9,5.6-4.9c7.4-0.1,14.8-0.2,22.2,0c3,0,5.6,3,5.6,6
			c0,3-2.4,5.9-5.5,6.1c-4.1,0.3-8.2,0.1-12.3,0.2c-1.3,0-2.6,0-4.1,0c-7.7,67.3-15.3,134.4-23,201.6h242.9
			c-7.7-67.2-15.3-134.1-23-201.4c-1.1,0-2.2-0.1-3.2-0.1c-5.5,0-11,0.1-16.5-0.2c-3.3-0.1-5.7-3-5.6-6.2c0.1-3.2,2.7-5.9,6-5.9
			c8.2-0.1,16.4-0.1,24.6,0c3.8,0,5.9,1.9,6.4,5.8c1.1,8,1.9,16,2.8,24.1c1.7,14.8,3.4,29.5,5.1,44.3c1.7,15,3.4,29.9,5.1,44.9
			c1.7,14.9,3.4,29.7,5.1,44.6c1.7,14.9,3.4,29.7,5.1,44.6c0.4,3.7,1,7.3,1.2,11c0.3,4.5-2.1,6.8-6.6,7c-0.5,0-1,0-1.5,0
			c-84.2,0-168.4,0-252.6,0.1c-3.8,0-6.6-0.9-8.4-4.4C45.4,335.8,45.4,334,45.4,332.2L45.4,332.2z"/>
		<path class="st0" d="M184.5,42c4.9,1.1,10,1.7,14.8,3.3c25.9,9,41.9,31.6,42,59c0.1,11.6,0,23.2,0,34.8c0,1.7,0.3,2.9,1.8,4.1
			c5.4,4.5,5.7,12.5,0.8,17.6c-4.6,4.9-12.7,5-17.5,0.2c-4.9-4.9-4.8-13,0.4-17.6c1.5-1.3,2.1-2.6,2-4.6c-0.1-11.6,0-23.2,0-34.8
			c-0.1-29-23.3-51.3-52.3-49.4c-25.1,1.7-45.2,21.9-45.5,49.3c-0.1,11.8-0.1,23.6,0.1,35.4c0,1.2,0.7,2.7,1.6,3.5
			c4.3,4,5.7,9.6,3.3,14.7c-2.5,5.2-7.9,7.9-13.7,6.8c-5.2-1-9.2-5.6-9.6-11.2c-0.3-3.9,1.4-7.1,4.1-9.9c1-1,1.8-2.6,1.8-4
			c0.3-13.4-0.4-26.8,0.6-40.1c2-25.5,15.6-43.2,39.3-52.8c5.4-2.2,11.3-2.9,17-4.3C178.5,42,181.5,42,184.5,42L184.5,42z"/>
		<path class="st0" d="M180.7,115.6c9.9,0,19.8,0,29.6,0c3.1,0,5.4,2,6,4.8c0.6,2.8-0.8,5.6-3.5,6.8c-0.9,0.4-1.9,0.6-2.9,0.6
			c-19.6,0-39.1,0.1-58.7,0c-3.5,0-5.8-1.9-6.5-5c-0.6-2.5,0.8-5.5,3.5-6.6c1.1-0.5,2.5-0.6,3.8-0.6
			C161.5,115.6,171.1,115.6,180.7,115.6L180.7,115.6z"/>
	</g>
</g>
</svg>
