<?xml version="1.0" encoding="utf-8"?>
<!-- Generator: Adobe Illustrator 26.3.1, SVG Export Plug-In . SVG Version: 6.00 Build 0)  -->
<svg version="1.1" id="Capa_2_00000169545711678298240750000009712583444647794615_"
	 xmlns="http://www.w3.org/2000/svg" xmlns:xlink="http://www.w3.org/1999/xlink" x="0px" y="0px" viewBox="0 0 766 811.4"
	 style="enable-background:new 0 0 766 811.4;" xml:space="preserve">
<style type="text/css">
	.st0{fill:#FFFFFF;}
</style>
<g id="crumIY_00000086690814555486283610000011475605360566862494_">
	<g>
		<path class="st0" d="M383.2,593.5c-94.3,0-188.6,0-283,0c-9.8,0-12.1-2.3-12.1-12c0-117.5,0-235,0-352.5c0-8.4,2.7-11.2,11-11.2
			c189.3,0,378.6,0,567.9,0c8,0,10.8,2.9,10.8,10.9c0,117.8,0,235.6,0,353.5c0,8.8-2.5,11.4-11.2,11.4
			C572.2,593.5,477.7,593.5,383.2,593.5z M383,456.7c33.5-26.5,66.5-52.6,99.5-78.8c46.3-36.7,92.6-73.6,138.9-110.3
			c16.3-12.9,32.6-25.9,48.9-38.9c1-0.8,1.5-2.2,2.3-3.4c-1.4-0.9-2.7-2.1-4.3-2.7c-1-0.4-2.3-0.1-3.5-0.1c-86.8,0-173.6,0-260.4,0
			c-101.5,0-203,0-304.4,0.1c-2.1,0-4.3,1.6-6.4,2.4c1.2,1.6,2.1,3.5,3.5,4.7c77.8,61.9,155.7,123.7,233.6,185.5
			C348,429,365.4,442.8,383,456.7z M92.8,585c2.5,5.8,7.1,3.7,10.7,3.7c184.8,0.1,369.6,0.1,554.4,0.1c3.3,0,6.7,0.3,10-0.1
			c1.9-0.2,3.6-1.6,6.3-2.9c-75.2-59.6-149.1-118.3-223-177c-23,18.2-45.5,36.1-68.1,54c-22.9-18.1-45.4-36-68.1-54
			C240.8,467.6,166.9,526.2,92.8,585z M672.6,578.5c0-115.5,0-230.1,0-345.5c-72.9,57.8-145.2,115.2-217.7,172.7
			C527.8,463.6,599.9,520.8,672.6,578.5z M93.2,578.6c72.9-57.9,145.2-115.2,217.9-172.9C238.2,347.9,166,290.6,93.2,232.9
			C93.2,348.5,93.2,463.1,93.2,578.6z"/>
	</g>
</g>
</svg>
