<?xml version="1.0" encoding="utf-8"?>
<!-- Generator: Adobe Illustrator 26.3.1, SVG Export Plug-In . SVG Version: 6.00 Build 0)  -->
<svg version="1.1" id="Layer_1" xmlns="http://www.w3.org/2000/svg" xmlns:xlink="http://www.w3.org/1999/xlink" x="0px" y="0px"
	 viewBox="0 0 766 811.4" style="enable-background:new 0 0 766 811.4;" xml:space="preserve">
<style type="text/css">
	.st0{display:none;}
	.st1{display:inline;}
	.st2{fill:#D2D2D2;}
	.st3{fill:#FFFFFF;}
	.st4{fill:none;stroke:#FFFFFF;stroke-width:3;stroke-miterlimit:10;}
</style>
<g id="Capa_2_00000152949880599160394690000011410247250778845115_" class="st0">
	<g id="_8y4Stp.tif" class="st1">
		<path class="st2" d="M41.8,167.2h682.4c10.4,0,18.8,8.4,18.8,18.8v439.3c0,10.4-8.4,18.8-18.8,18.8l0,0H41.8
			c-10.4,0-18.8-8.4-18.8-18.8l0,0V186C23,175.6,31.4,167.2,41.8,167.2z M628.4,202.6H137.6c-17.4,0-25.5,21.5-12.4,33l245.4,215.5
			c7.1,6.2,17.7,6.2,24.8,0l245.5-215.6C653.9,224.1,645.8,202.6,628.4,202.6z M137.3,609h491.3c17.4,0,25.5-21.5,12.4-33
			L486.3,440.1c-7.1-6.2-17.7-6.2-24.8,0l-66.1,58c-7.1,6.2-17.7,6.2-24.8,0l-66.1-58c-7.1-6.2-17.7-6.2-24.8,0L124.9,576
			C111.9,587.5,120,609,137.3,609z M516.8,419.8L676.3,560c12.2,10.7,31.2,2,31.2-14.1V265.5c0-10.4-8.4-18.8-18.8-18.8
			c-4.6,0-9,1.7-12.4,4.7L516.7,391.5c-7.8,6.9-8.6,18.8-1.7,26.6C515.6,418.7,516.1,419.3,516.8,419.8z M249.2,391.5L89.5,251.3
			c-12.2-10.7-31.2-2-31.2,14.1v280.5c0,10.4,8.4,18.8,18.8,18.8c4.6,0,9-1.7,12.4-4.7l159.7-140.3c7.8-6.9,8.6-18.8,1.7-26.6
			C250.4,392.6,249.8,392.1,249.2,391.5z"/>
	</g>
</g>
<g id="crumIY_00000086690814555486283610000011475605360566862494_">
	<g>
		<path class="st3" d="M383.2,593.5c-94.3,0-188.6,0-283,0c-9.8,0-12.1-2.3-12.1-12c0-117.5,0-235,0-352.5c0-8.4,2.7-11.2,11-11.2
			c189.3,0,378.6,0,567.9,0c8,0,10.8,2.9,10.8,10.9c0,117.8,0,235.6,0,353.5c0,8.8-2.5,11.4-11.2,11.4
			C572.2,593.5,477.7,593.5,383.2,593.5z M92.8,585c2.5,5.8,7.1,3.7,10.7,3.7c184.8,0.1,369.6,0.1,554.4,0.1c3.3,0,6.7,0.3,10-0.1
			c4.7,0,4.7-10.2,4.7-10.2c0-115.5,0-230.1,0-345.5l-0.1-7.6c-1.4-0.9-2.7-2.1-4.3-2.7c-1-0.4-2.3-0.1-3.5-0.1
			c-86.8,0-173.6,0-260.4,0c-101.5,0-203,0-304.4,0.1c-2.1,0-4.3,1.6-6.4,2.4l-0.3,7.8c0,115.6,0,230.2,0,345.7L92.8,585z"/>
	</g>
</g>
<g>
	
		<ellipse transform="matrix(0.1602 -0.9871 0.9871 0.1602 -27.7361 896.0801)" class="st4" cx="512.7" cy="464.3" rx="41.2" ry="41.2"/>
	<line class="st4" x1="168" y1="455.7" x2="150.7" y2="473"/>
	<line class="st4" x1="150.7" y1="455.7" x2="168" y2="473"/>
	<line class="st4" x1="199.1" y1="455.7" x2="181.8" y2="473"/>
	<line class="st4" x1="181.8" y1="455.7" x2="199.1" y2="473"/>
	<line class="st4" x1="230.2" y1="455.7" x2="212.9" y2="473"/>
	<line class="st4" x1="212.9" y1="455.7" x2="230.2" y2="473"/>
	<line class="st4" x1="261.3" y1="455.7" x2="244" y2="473"/>
	<line class="st4" x1="244" y1="455.7" x2="261.3" y2="473"/>
	<line class="st4" x1="292.4" y1="455.7" x2="275.1" y2="473"/>
	<line class="st4" x1="275.1" y1="455.7" x2="292.4" y2="473"/>
	<line class="st4" x1="323.5" y1="455.7" x2="306.2" y2="473"/>
	<line class="st4" x1="306.2" y1="455.7" x2="323.5" y2="473"/>
	<line class="st4" x1="354.6" y1="455.7" x2="337.4" y2="473"/>
	<line class="st4" x1="337.4" y1="455.7" x2="354.6" y2="473"/>
	<line class="st4" x1="385.7" y1="455.7" x2="368.5" y2="473"/>
	<line class="st4" x1="368.5" y1="455.7" x2="385.7" y2="473"/>
	<line class="st4" x1="416.8" y1="455.7" x2="399.6" y2="473"/>
	<line class="st4" x1="399.6" y1="455.7" x2="416.8" y2="473"/>
	<path class="st4" d="M535.6,430.1c11,7.4,18.3,20,18.3,34.2s-7.3,26.9-18.3,34.2h79.7v-68.5H535.6z"/>
</g>
<rect x="92.8" y="271.2" class="st3" width="579.8" height="64.4"/>
</svg>
