<?xml version="1.0" encoding="utf-8"?>
<!-- Generator: Adobe Illustrator 26.3.1, SVG Export Plug-In . SVG Version: 6.00 Build 0)  -->
<svg version="1.1" id="Layer_1" xmlns="http://www.w3.org/2000/svg" xmlns:xlink="http://www.w3.org/1999/xlink" x="0px" y="0px"
	 viewBox="0 0 360 224" style="enable-background:new 0 0 360 224;" xml:space="preserve">
<style type="text/css">
	.st0{fill:#FFFFFF;}
</style>
<g>
	<path class="st0" d="M225.2,190.1h-20.7c-3.4-1.4-4.7-4-4.4-7.6c0.2-2.1,0-4.3,0-6.4c0-0.9,0-1.9,0-2.8H160c0,3.2-0.1,6.2,0,9.3
		c0.2,3.6-1,6.2-4.4,7.6h-20.7c-3.4-1.3-4.8-3.8-4.6-7.4c0.1-1.8,0-3.5,0-5.3v-4.2c-1.4-0.1-2.7-0.1-3.9-0.3c-4.9-1-7.9-5-7.9-10.5
		c0-18.5,0-37,0-55.5c0-0.7,0-1.3,0-2.1c-1.6,0-2.9,0-4.3,0c-4.3-0.1-7.3-3.1-7.3-7.6c0-5.6,0-11.2,0-16.8c0-4.6,3.1-7.6,7.6-7.7
		c1.3,0,2.6,0,4.1,0c0-2,0-3.9,0-5.8c0-7.5,0-15,0-22.6c0-4.9,2.5-8.5,6.8-10c0.5-0.2,1.1-0.4,1.6-0.5c35.4,0,70.8,0,106.1,0
		c6.4,1.7,8.6,6.2,8.4,12c-0.2,8.3,0,16.6,0,24.8c0,0.6,0,1.2,0,2c1.4,0,2.6,0,3.8,0c4.9,0,7.9,3,7.9,7.9c0,5.4,0,10.9,0,16.3
		c0,4.9-3,7.8-7.9,7.9c-1.3,0-2.5,0-3.8,0v2.2c0,18.2,0,36.4,0,54.6c0,0.8,0,1.6-0.1,2.4c-0.4,4.9-4.4,8.7-9.4,9c-0.7,0-1.5,0-2.3,0
		c0,3.4-0.1,6.5,0,9.7C229.9,186.3,228.5,188.8,225.2,190.1L225.2,190.1z M180,122.2c16.5,0,33,0,49.5,0c5.5,0,8.4-2.9,8.4-8.4
		c0-16.7,0-33.3,0-50c0-5.5-2.9-8.5-8.5-8.5c-12,0-24,0-36,0c-21.1,0-42.2,0-63.3,0c-4.8,0-8.1,3-8.1,7.6c0,17.2,0,34.4,0,51.7
		c0,2.5,1,4.5,3,6.1c1.6,1.3,3.5,1.5,5.5,1.5C147,122.2,163.5,122.2,180,122.2L180,122.2z M237.9,122.9c-2.9,2.5-6,2.9-9.3,2.9
		c-25.4,0-50.8,0-76.2,0c-7.5,0-14.9,0-22.4,0c-2.6,0-4.9-0.6-7-2.2c-0.2-0.2-0.5-0.3-0.9-0.5v1.8c0,12.3,0,24.6,0,36.9
		c0,5.2,2.4,7.7,7.6,7.7c33.6,0,67.1,0,100.6,0c5.1,0,7.6-2.4,7.6-7.5c0-12.4,0-24.8,0-37.2L237.9,122.9L237.9,122.9z M237.9,54.7
		c0-3.7,0-6.9,0-10.1c0-0.4,0-0.9,0-1.4c-0.4-3.3-2.9-5.6-6.3-5.7c-2.8,0-5.6,0-8.4,0c-31.3,0-62.6,0-93.9,0c-4.6,0-7.1,2.5-7.2,7.2
		c0,2.1,0,4.1,0,6.3c0,1.1,0,2.3,0,3.8c2.9-2.6,6.1-2.9,9.4-2.9c32.4,0,64.9,0,97.3,0C232.1,51.9,235.1,52.3,237.9,54.7L237.9,54.7z
		 M203.6,173.2c0,3.8,0,7.4,0,11c0,1.3,0.8,2.3,2.2,2.3c6.1,0,12.1,0,18.1,0c1.2,0,2.1-0.7,2.1-1.8c0.1-3.8,0-7.6,0-11.5H203.6
		L203.6,173.2z M133.9,173.2c0,3.8,0,7.4,0,11.1c0,1.4,0.9,2.2,2.2,2.2c6,0,12,0,18,0c1.3,0,2.2-0.7,2.3-2c0.1-3.7,0-7.5,0-11.3
		H133.9L133.9,173.2z M118.4,101.2V76.4c-0.4,0-0.6-0.1-0.9-0.1c-1.2,0-2.3,0-3.5,0c-2.2,0.1-3.6,1.5-3.6,3.7c0,5.9,0,11.7,0,17.5
		c0,2,1.3,3.5,3.3,3.7C115.3,101.3,116.8,101.2,118.4,101.2L118.4,101.2z M241.6,101.3c1.6,0,3.1,0.1,4.5,0c2-0.1,3.5-1.5,3.5-3.5
		c0-5.9,0-11.9,0-17.8c0-1.9-1.4-3.4-3.3-3.5c-1.5-0.1-3.1,0-4.6,0V101.3L241.6,101.3z"/>
	<path class="st0" d="M218.7,152.7c-2.8,0-5.7,0-8.5,0c-1.8,0-2.4-0.6-2.4-2.4c0-3,0-6,0-9c0-1.7,0.6-2.3,2.3-2.3
		c5.8,0,11.6,0,17.4,0c1.6,0,2.2,0.6,2.2,2.2c0,3.1,0,6.1,0,9.2c0,1.7-0.6,2.3-2.3,2.3C224.5,152.7,221.6,152.7,218.7,152.7
		L218.7,152.7z M211.5,142.7v6.3H226v-6.3H211.5z"/>
	<path class="st0" d="M141.2,152.7c-2.8,0-5.7,0-8.5,0c-1.8,0-2.4-0.6-2.4-2.4c0-2.9,0-5.9,0-8.8c0-1.8,0.6-2.4,2.3-2.4
		c5.7,0,11.5,0,17.2,0c1.8,0,2.4,0.5,2.4,2.4c0,2.9,0,5.9,0,8.8c0,1.9-0.6,2.4-2.5,2.4C146.9,152.7,144,152.7,141.2,152.7
		L141.2,152.7z M148.6,142.7H134v6.3h14.6V142.7z"/>
	<path class="st0" d="M180,161.5c-6.8,0-13.6,0-20.5,0c-0.6,0-1.3,0.2-1.6-0.1c-0.6-0.4-1.3-1.1-1.3-1.7s0.8-1.2,1.3-1.7
		c0.3-0.2,0.9-0.1,1.3-0.1c13.8,0,27.7,0,41.5,0c0.4,0,0.7,0,1.1,0c1.1,0.1,1.7,0.7,1.7,1.7c0,1.1-0.7,1.7-1.7,1.7
		c-0.4,0-0.9,0-1.4,0C193.6,161.5,186.8,161.5,180,161.5L180,161.5z"/>
	<path class="st0" d="M180,43c9.4,0,18.8,0,28.2,0c0.7,0,1.4,0,1.9,0.4c0.4,0.3,0.8,1,0.7,1.5c-0.1,0.5-0.6,1.2-1.1,1.5
		s-1.2,0.2-1.8,0.2c-18.6,0-37.2,0-55.8,0c-0.4,0-0.7,0-1.1,0c-1.1-0.1-1.9-0.6-1.9-1.8c0-1.3,0.8-1.8,2-1.8c5.7,0,11.3,0,16.9,0
		C172,43,176,43,180,43L180,43z"/>
</g>
</svg>
